<svg width="40" height="40" viewBox="0 0 40 40" fill="none" xmlns="http://www.w3.org/2000/svg">
<path d="M13.3333 4.16663C13.0428 4.16672 12.7614 4.26799 12.5375 4.45304C12.3135 4.63808 12.161 4.89535 12.1061 5.18063L10.0228 16.014C10.0077 16.0917 10.0001 16.1707 10 16.25V20.4166C10 22.0124 11.3209 23.3333 12.9167 23.3333H15V31.6666C14.9978 31.8453 15.0338 32.0223 15.1058 32.1858C15.3748 34.2198 17.0639 35.8333 19.1667 35.8333C21.453 35.8333 23.3333 33.953 23.3333 31.6666C23.3333 29.3802 21.453 27.5 19.1667 27.5C18.5733 27.5 18.0129 27.6354 17.5 27.8629V22.2884C17.522 22.1542 17.522 22.0173 17.5 21.8831V16.25C17.4999 16.1707 17.4923 16.0917 17.4772 16.014L15.3939 5.18063C15.339 4.89535 15.1865 4.63808 14.9625 4.45304C14.7386 4.26799 14.4572 4.16672 14.1667 4.16663H13.3333ZM23.75 4.16663C23.5844 4.16429 23.4199 4.19489 23.2662 4.25665C23.1125 4.31842 22.9726 4.41012 22.8546 4.52643C22.7367 4.64273 22.643 4.78132 22.5791 4.93415C22.5151 5.08697 22.4822 5.25097 22.4822 5.41663C22.4822 5.58229 22.5151 5.74629 22.5791 5.89911C22.643 6.05193 22.7367 6.19052 22.8546 6.30683C22.9726 6.42313 23.1125 6.51484 23.2662 6.5766C23.4199 6.63837 23.5844 6.66897 23.75 6.66663H28.3333V8.3333H23.75C23.5844 8.33095 23.4199 8.36155 23.2662 8.42332C23.1125 8.48509 22.9726 8.57679 22.8546 8.6931C22.7367 8.8094 22.643 8.94799 22.5791 9.10081C22.5151 9.25363 22.4822 9.41764 22.4822 9.5833C22.4822 9.74895 22.5151 9.91296 22.5791 10.0658C22.643 10.2186 22.7367 10.3572 22.8546 10.4735C22.9726 10.5898 23.1125 10.6815 23.2662 10.7433C23.4199 10.805 23.5844 10.8356 23.75 10.8333H28.3333V12.5H23.75C23.5844 12.4976 23.4199 12.5282 23.2662 12.59C23.1125 12.6518 22.9726 12.7435 22.8546 12.8598C22.7367 12.9761 22.643 13.1147 22.5791 13.2675C22.5151 13.4203 22.4822 13.5843 22.4822 13.75C22.4822 13.9156 22.5151 14.0796 22.5791 14.2324C22.643 14.3853 22.7367 14.5239 22.8546 14.6402C22.9726 14.7565 23.1125 14.8482 23.2662 14.9099C23.4199 14.9717 23.5844 15.0023 23.75 15H28.3333V16.6666H23.75C23.5844 16.6643 23.4199 16.6949 23.2662 16.7567C23.1125 16.8184 22.9726 16.9101 22.8546 17.0264C22.7367 17.1427 22.643 17.2813 22.5791 17.4341C22.5151 17.587 22.4822 17.751 22.4822 17.9166C22.4822 18.0823 22.5151 18.2463 22.5791 18.3991C22.643 18.5519 22.7367 18.6905 22.8546 18.8068C22.9726 18.9231 23.1125 19.0148 23.2662 19.0766C23.4199 19.1384 23.5844 19.169 23.75 19.1666H28.3333V20.8333H23.75C23.5844 20.831 23.4199 20.8616 23.2662 20.9233C23.1125 20.9851 22.9726 21.0768 22.8546 21.1931C22.7367 21.3094 22.643 21.448 22.5791 21.6008C22.5151 21.7536 22.4822 21.9176 22.4822 22.0833C22.4822 22.249 22.5151 22.413 22.5791 22.5658C22.643 22.7186 22.7367 22.8572 22.8546 22.9735C22.9726 23.0898 23.1125 23.1815 23.2662 23.2433C23.4199 23.305 23.5844 23.3356 23.75 23.3333H28.3333V32.5V32.9166C28.3333 34.5124 29.6542 35.8333 31.25 35.8333C32.8458 35.8333 34.1667 34.5124 34.1667 32.9166V7.0833C34.1667 5.4875 32.8458 4.16663 31.25 4.16663H23.75ZM10 23.9502V26.8994C9.60659 26.7576 9.18954 26.6666 8.75 26.6666C6.69375 26.6666 5 28.3604 5 30.4166V32.0833C5 34.1395 6.69375 35.8333 8.75 35.8333C10.8063 35.8333 12.5 34.1395 12.5 32.0833V31.25V30.4166V24.9755C11.55 24.8922 10.6917 24.5252 10 23.9502ZM8.75 29.1666C9.45542 29.1666 10 29.7112 10 30.4166V31.25V32.0833C10 32.7887 9.45542 33.3333 8.75 33.3333C8.04458 33.3333 7.5 32.7887 7.5 32.0833V30.4166C7.5 29.7112 8.04458 29.1666 8.75 29.1666ZM19.1667 30C20.102 30 20.8333 30.7313 20.8333 31.6666C20.8333 32.6019 20.102 33.3333 19.1667 33.3333C18.2314 33.3333 17.5 32.6019 17.5 31.6666C17.5 30.7313 18.2314 30 19.1667 30Z" fill="#FF6D1B"/>
</svg>
