<svg width="20" height="20" viewBox="0 0 20 20" fill="none" xmlns="http://www.w3.org/2000/svg">
<path d="M3.1332 15.8506C3.04931 15.9321 2.98247 16.0295 2.93655 16.1371C2.89063 16.2447 2.86656 16.3604 2.86574 16.4774C2.86491 16.5944 2.88734 16.7104 2.93173 16.8186C2.97612 16.9269 3.04158 17.0252 3.12431 17.1079C3.20704 17.1907 3.30539 17.2561 3.41363 17.3005C3.52188 17.3449 3.63787 17.3673 3.75487 17.3665C3.87186 17.3657 3.98752 17.3416 4.09513 17.2957C4.20274 17.2498 4.30015 17.1829 4.3817 17.0991L16.8667 4.61419C16.9506 4.53264 17.0174 4.43523 17.0633 4.32762C17.1093 4.22001 17.1333 4.10435 17.1342 3.98736C17.135 3.87036 17.1126 3.75438 17.0682 3.64613C17.0238 3.53788 16.9583 3.43954 16.8756 3.35681C16.7929 3.27408 16.6945 3.20862 16.5863 3.16423C16.478 3.11984 16.362 3.09741 16.245 3.09823C16.128 3.09906 16.0124 3.12313 15.9048 3.16905C15.7972 3.21496 15.6997 3.28181 15.6182 3.3657L3.1332 15.8506Z" fill="white"/>
<path d="M4.38112 3.36537C4.29957 3.28149 4.20216 3.21464 4.09455 3.16872C3.98694 3.12281 3.87128 3.09874 3.75429 3.09791C3.6373 3.09708 3.52131 3.11952 3.41306 3.1639C3.30481 3.20829 3.20646 3.27376 3.12374 3.35648C3.04101 3.43921 2.97555 3.53756 2.93116 3.6458C2.88677 3.75405 2.86433 3.87004 2.86516 3.98703C2.86599 4.10402 2.89006 4.21968 2.93597 4.32729C2.98189 4.4349 3.04874 4.53231 3.13263 4.61386L15.6176 17.0987C15.6992 17.1826 15.7966 17.2495 15.9042 17.2954C16.0118 17.3413 16.1275 17.3654 16.2445 17.3662C16.3614 17.367 16.4774 17.3446 16.5857 17.3002C16.6939 17.2558 16.7923 17.1904 16.875 17.1076C16.9577 17.0249 17.0232 16.9266 17.0676 16.8183C17.112 16.7101 17.1344 16.5941 17.1336 16.4771C17.1328 16.3601 17.1087 16.2444 17.0628 16.1368C17.0169 16.0292 16.95 15.9318 16.8661 15.8502L4.38112 3.36537Z" fill="white"/>
</svg>
