<svg width="18" height="18" viewBox="0 0 18 18" fill="none" xmlns="http://www.w3.org/2000/svg">
<path d="M1.80057 2.87995C1.70516 2.87861 1.61043 2.89623 1.5219 2.93181C1.43336 2.96739 1.35278 3.02021 1.28483 3.0872C1.21688 3.15419 1.16293 3.23402 1.1261 3.32205C1.08928 3.41007 1.07031 3.50454 1.07031 3.59995C1.07031 3.69537 1.08928 3.78984 1.1261 3.87786C1.16293 3.96589 1.21688 4.04572 1.28483 4.11271C1.35278 4.1797 1.43336 4.23252 1.5219 4.2681C1.61043 4.30368 1.70516 4.3213 1.80057 4.31995H16.2006C16.296 4.3213 16.3907 4.30368 16.4792 4.2681C16.5678 4.23252 16.6484 4.1797 16.7163 4.11271C16.7843 4.04572 16.8382 3.96589 16.875 3.87786C16.9119 3.78984 16.9308 3.69537 16.9308 3.59995C16.9308 3.50454 16.9119 3.41007 16.875 3.32205C16.8382 3.23402 16.7843 3.15419 16.7163 3.0872C16.6484 3.02021 16.5678 2.96739 16.4792 2.93181C16.3907 2.89623 16.296 2.87861 16.2006 2.87995H1.80057ZM1.80057 8.27995C1.70516 8.27861 1.61043 8.29623 1.5219 8.33181C1.43336 8.36739 1.35278 8.42021 1.28483 8.4872C1.21688 8.55419 1.16293 8.63402 1.1261 8.72204C1.08928 8.81007 1.07031 8.90454 1.07031 8.99995C1.07031 9.09537 1.08928 9.18984 1.1261 9.27786C1.16293 9.36589 1.21688 9.44572 1.28483 9.51271C1.35278 9.5797 1.43336 9.63252 1.5219 9.6681C1.61043 9.70368 1.70516 9.7213 1.80057 9.71995H16.2006C16.296 9.7213 16.3907 9.70368 16.4792 9.6681C16.5678 9.63252 16.6484 9.5797 16.7163 9.51271C16.7843 9.44572 16.8382 9.36589 16.875 9.27786C16.9119 9.18984 16.9308 9.09537 16.9308 8.99995C16.9308 8.90454 16.9119 8.81007 16.875 8.72204C16.8382 8.63402 16.7843 8.55419 16.7163 8.4872C16.6484 8.42021 16.5678 8.36739 16.4792 8.33181C16.3907 8.29623 16.296 8.27861 16.2006 8.27995H1.80057ZM1.80057 13.68C1.70516 13.6786 1.61043 13.6962 1.5219 13.7318C1.43336 13.7674 1.35278 13.8202 1.28483 13.8872C1.21688 13.9542 1.16293 14.034 1.1261 14.122C1.08928 14.2101 1.07031 14.3045 1.07031 14.4C1.07031 14.4954 1.08928 14.5898 1.1261 14.6779C1.16293 14.7659 1.21688 14.8457 1.28483 14.9127C1.35278 14.9797 1.43336 15.0325 1.5219 15.0681C1.61043 15.1037 1.70516 15.1213 1.80057 15.12H16.2006C16.296 15.1213 16.3907 15.1037 16.4792 15.0681C16.5678 15.0325 16.6484 14.9797 16.7163 14.9127C16.7843 14.8457 16.8382 14.7659 16.875 14.6779C16.9119 14.5898 16.9308 14.4954 16.9308 14.4C16.9308 14.3045 16.9119 14.2101 16.875 14.122C16.8382 14.034 16.7843 13.9542 16.7163 13.8872C16.6484 13.8202 16.5678 13.7674 16.4792 13.7318C16.3907 13.6962 16.296 13.6786 16.2006 13.68H1.80057Z" fill="#000"/>
</svg>
