<svg width="64" height="64" viewBox="0 0 64 64" fill="none" xmlns="http://www.w3.org/2000/svg">
<g clip-path="url(#clip0_253_3730)">
<path d="M27.7333 41.7042H22.5488L25.7916 21.8596H30.9757L27.7333 41.7042Z" fill="#0373CF"/>
<path d="M46.5265 22.3449C45.5039 21.9433 43.882 21.5 41.8765 21.5C36.7567 21.5 33.1514 24.2021 33.1292 28.0653C33.0867 30.9155 35.7106 32.4986 37.673 33.449C39.6788 34.4201 40.3606 35.054 40.3606 35.9196C40.3402 37.249 38.7398 37.8618 37.2471 37.8618C35.1773 37.8618 34.0682 37.5459 32.3828 36.8063L31.7001 36.4892L30.9746 40.9439C32.1906 41.4921 34.4308 41.9787 36.7567 42C42.1966 42 45.7381 39.3397 45.7801 35.2229C45.8008 32.9638 44.4153 31.2329 41.4283 29.8184C39.615 28.9104 38.5045 28.2982 38.5045 27.3691C38.5258 26.5246 39.4437 25.6595 41.4906 25.6595C43.1761 25.6171 44.4144 26.0181 45.3526 26.4193L45.8215 26.6301L46.5265 22.3449Z" fill="#0373CF"/>
<path d="M53.4177 34.6739C53.8446 33.5339 55.4875 29.1216 55.4875 29.1216C55.466 29.164 55.9136 27.9605 56.1697 27.2217L56.532 28.9316C56.532 28.9316 57.5137 33.6818 57.7269 34.6739C56.9167 34.6739 54.4417 34.6739 53.4177 34.6739ZM59.8172 21.8596H55.807C54.5704 21.8596 53.6309 22.2182 53.0973 23.5061L45.3965 41.7039H50.8364C50.8364 41.7039 51.732 39.2546 51.9245 38.7271C52.5212 38.7271 57.8131 38.7271 58.5809 38.7271C58.7297 39.4238 59.1995 41.7039 59.1995 41.7039H63.9998L59.8172 21.8596Z" fill="#0373CF"/>
<path d="M18.2179 21.8596L13.1406 35.3917L12.5858 32.6472C11.6471 29.4805 8.70322 26.0399 5.41797 24.3291L10.0686 41.6831H15.551L23.7 21.8596H18.2179Z" fill="#0373CF"/>
<path d="M8.42661 21.8596H0.0853345L0 22.2606C6.50671 23.9074 10.816 27.8769 12.5865 32.6481L10.7732 23.5277C10.4746 22.2603 9.55722 21.9014 8.42661 21.8596Z" fill="#FAA61A"/>
</g>
<defs>
<clipPath id="clip0_253_3730">
<rect width="64" height="64" fill="white"/>
</clipPath>
</defs>
</svg>
