<svg width="64" height="64" viewBox="0 0 64 64" fill="none" xmlns="http://www.w3.org/2000/svg">
<path d="M12.5104 12.0002H28.455C30.6807 12.0002 32.0651 13.8144 31.5458 16.0475L24.1225 47.9189C23.5986 50.1443 21.3701 51.96 19.1428 51.96H3.19975C0.977135 51.96 -0.410302 50.1443 0.108918 47.9189L7.5354 16.0475C8.05462 13.8144 10.2819 12.0002 12.5104 12.0002Z" fill="#D8D8D8"/>
<path d="M27.1285 12.0002H45.4644C47.6898 12.0002 46.6863 13.8144 46.1628 16.0475L38.7406 47.9189C38.2198 50.1443 38.3823 51.96 36.1523 51.96H17.8163C15.5863 51.96 14.2063 50.1443 14.7302 47.9189L22.152 16.0475C22.679 13.8144 24.9016 12.0002 27.1285 12.0002Z" fill="#C7C7C7"/>
<path d="M44.7371 12.0002H60.6818C62.9106 12.0002 64.2949 13.8144 63.7714 16.0475L56.3492 47.9189C55.8253 50.1443 53.5953 51.96 51.3669 51.96H35.4296C33.1996 51.96 31.8165 50.1443 32.3388 47.9189L39.7622 16.0475C40.2814 13.8144 42.5071 12.0002 44.7371 12.0002Z" fill="#D8D8D8"/>
<path d="M16.6749 22.214C15.0352 22.2307 14.551 22.214 14.3963 22.1775C14.3368 22.46 13.2304 27.564 13.2273 27.5683C12.989 28.6009 12.8157 29.3369 12.2269 29.8122C11.8927 30.0886 11.5025 30.2219 11.0501 30.2219C10.323 30.2219 9.89937 29.8608 9.82824 29.176L9.81464 28.9409C9.81464 28.9409 10.0362 27.5578 10.0362 27.55C10.0362 27.55 11.1974 22.8988 11.4053 22.2839C11.4162 22.249 11.4193 22.2307 11.422 22.214C9.16173 22.2338 8.76105 22.214 8.73345 22.1775C8.7183 22.2276 8.66233 22.516 8.66233 22.516L7.4766 27.7583L7.37477 28.2029L7.17773 29.6572C7.17773 30.0886 7.26246 30.4407 7.43113 30.7384C7.97133 31.6824 9.51228 31.8238 10.384 31.8238C11.5072 31.8238 12.5608 31.5852 13.2727 31.1496C14.5086 30.4193 14.832 29.2779 15.1203 28.2635L15.254 27.7431C15.254 27.7431 16.4502 22.9124 16.6535 22.2839C16.6613 22.249 16.6644 22.2307 16.6749 22.214ZM20.745 26.111C20.4566 26.111 19.9296 26.181 19.4562 26.413C19.2845 26.5012 19.122 26.603 18.9506 26.7045L19.1053 26.146L19.0206 26.0519C18.0167 26.2552 17.7921 26.2824 16.8648 26.413L16.7871 26.4647C16.6794 27.3574 16.5838 28.0286 16.1847 29.7833C16.0327 30.4299 15.8749 31.0829 15.7168 31.728L15.7595 31.81C16.7097 31.7599 16.9981 31.7599 17.824 31.7735L17.8908 31.7008C17.9957 31.1633 18.0093 31.0374 18.2417 29.9488C18.351 29.4327 18.5787 28.2987 18.691 27.8949C18.8974 27.7993 19.101 27.7052 19.2953 27.7052C19.7582 27.7052 19.7019 28.109 19.684 28.2699C19.6642 28.54 19.4955 29.4222 19.3226 30.1797L19.2071 30.6686C19.1267 31.0296 19.0385 31.3806 18.958 31.7385L18.993 31.81C19.9296 31.7599 20.2153 31.7599 21.0151 31.7735L21.1091 31.7008C21.2537 30.8613 21.2961 30.6367 21.5526 29.4144L21.6816 28.8529C21.9323 27.7538 22.0582 27.1965 21.8685 26.7426C21.668 26.2338 21.1868 26.111 20.745 26.111ZM25.2917 27.2617C24.7939 27.3573 24.4764 27.4211 24.1608 27.4623C23.8479 27.5124 23.5428 27.5579 23.0617 27.6247L23.0236 27.6593L22.9887 27.6869C22.9385 28.0452 22.9035 28.355 22.8371 28.7191C22.7807 29.0957 22.6941 29.5236 22.553 30.1384C22.4438 30.6091 22.3874 30.7731 22.3252 30.9386C22.2646 31.1042 22.1978 31.2651 22.075 31.728L22.1037 31.7707L22.1278 31.81C22.5775 31.7886 22.8717 31.7734 23.174 31.7707C23.476 31.7598 23.7889 31.7707 24.2731 31.7734L24.3155 31.7388L24.3609 31.7008C24.4309 31.2834 24.4414 31.171 24.4841 30.9674C24.5265 30.749 24.5996 30.4466 24.7787 29.639C24.8634 29.2597 24.9579 28.8816 25.0457 28.4945C25.137 28.109 25.2326 27.7293 25.3236 27.35L25.31 27.3041L25.2917 27.2617ZM25.3023 25.7102C24.85 25.4432 24.056 25.5279 23.5216 25.8968C22.9888 26.2582 22.9281 26.7712 23.379 27.0417C23.8236 27.3013 24.6207 27.224 25.1504 26.852C25.682 26.4828 25.7485 25.9745 25.3023 25.7102ZM28.0381 31.8936C28.9534 31.8936 29.8916 31.6414 30.5977 30.8929C31.141 30.2858 31.3901 29.3826 31.4764 29.0107C31.7574 27.778 31.5386 27.2024 31.2638 26.8518C30.8464 26.3175 30.1088 26.1461 29.3436 26.1461C28.8834 26.1461 27.7875 26.1915 26.9313 26.9809C26.3165 27.5502 26.0324 28.3228 25.861 29.0636C25.6881 29.8183 25.4891 31.177 26.7385 31.6826C27.1241 31.8482 27.6798 31.8936 28.0381 31.8936ZM27.9666 29.1199C28.1777 28.1864 28.4268 27.4029 29.0626 27.4029C29.5608 27.4029 29.597 27.9859 29.3754 28.9225C29.3358 29.1304 29.1539 29.9034 28.9079 30.2326C28.7361 30.4755 28.5329 30.6228 28.3082 30.6228C28.2414 30.6228 27.8438 30.6228 27.8376 30.0325C27.8345 29.741 27.894 29.4433 27.9666 29.1199ZM33.7643 31.7736L33.8358 31.7009C33.9373 31.1634 33.954 31.0371 34.1786 29.9489C34.2909 29.4328 34.5233 28.2988 34.6326 27.895C34.8393 27.799 35.0395 27.7049 35.24 27.7049C35.6998 27.7049 35.6438 28.1087 35.6255 28.2696C35.6088 28.5401 35.4401 29.4219 35.2641 30.1794L35.1549 30.6683C35.0713 31.0297 34.9804 31.3803 34.8999 31.7386L34.9349 31.8101C35.8746 31.76 36.1494 31.76 36.9539 31.7736L37.051 31.7009C37.1921 30.8611 37.2302 30.6364 37.4945 29.4146L37.6204 28.8526C37.8722 27.7535 37.9997 27.1966 37.8132 26.7427C37.6068 26.2339 37.1226 26.1111 36.6869 26.1111C36.3981 26.1111 35.8684 26.1807 35.3978 26.4131C35.2295 26.5013 35.0608 26.6028 34.8953 26.7046L35.0395 26.1461L34.9621 26.0517C33.9587 26.2553 33.7294 26.2825 32.8032 26.4131L32.7321 26.4648C32.6198 27.3575 32.5285 28.0283 32.1293 29.7834C31.9774 30.4301 31.8196 31.083 31.6618 31.7281L31.7042 31.8101C32.6559 31.76 32.94 31.76 33.7643 31.7736ZM40.6687 31.8099C40.7278 31.5216 41.0787 29.8123 41.0818 29.8123C41.0818 29.8123 41.3807 28.5582 41.3989 28.5127C41.3989 28.5127 41.493 28.3821 41.587 28.3305H41.7254C43.0308 28.3305 44.5049 28.3305 45.6603 27.4805C46.4466 26.8975 46.9841 26.0367 47.2238 24.9905C47.286 24.734 47.3319 24.4289 47.3319 24.1238C47.3319 23.7231 47.2514 23.3267 47.019 23.017C46.4299 22.1927 45.2566 22.1775 43.9021 22.1713C43.8979 22.1713 43.2345 22.1775 43.2345 22.1775C41.5008 22.1989 40.8055 22.1927 40.5198 22.1577C40.4957 22.284 40.4503 22.5087 40.4503 22.5087C40.4503 22.5087 39.8292 25.3869 39.8292 25.3916C39.8292 25.3916 38.3431 31.5111 38.2731 31.7994C39.7869 31.7812 40.4075 31.7812 40.6687 31.8099ZM41.8194 26.697C41.8194 26.697 42.4797 23.8246 42.4766 23.8355L42.498 23.6882L42.5073 23.5759L42.7712 23.6031C42.7712 23.6031 44.133 23.72 44.1649 23.7231C44.7024 23.9311 44.9239 24.467 44.7692 25.1665C44.6281 25.8059 44.2134 26.3433 43.6806 26.603C43.2419 26.8229 42.7044 26.8412 42.1506 26.8412H41.7922L41.8194 26.697ZM45.9306 29.1731C45.7561 29.917 45.5556 31.2757 46.7988 31.7599C47.1952 31.9286 47.5505 31.9787 47.9115 31.9604C48.2928 31.9398 48.646 31.7486 48.9733 31.4735C48.9437 31.5866 48.9142 31.6997 48.8846 31.8132L48.941 31.8858C49.8353 31.8481 50.1127 31.8481 51.0816 31.8555L51.1694 31.7887C51.3109 30.957 51.4442 30.1494 51.8119 28.5583C51.991 27.7962 52.1698 27.0415 52.3536 26.2824L52.3249 26.1989C51.3245 26.3843 51.0571 26.4239 50.0949 26.5603L50.0218 26.6198C50.0121 26.6971 50.002 26.7714 49.9926 26.8456C49.843 26.6038 49.6262 26.3975 49.2915 26.2688C48.8637 26.1006 47.8586 26.3174 46.9947 27.104C46.3876 27.6656 46.0962 28.4351 45.9306 29.1731ZM48.0316 29.2186C48.2457 28.3018 48.4917 27.5261 49.1291 27.5261C49.5321 27.5261 49.7443 27.898 49.7012 28.5323C49.667 28.6904 49.6301 28.8572 49.5861 29.0457C49.5224 29.3181 49.4532 29.5882 49.386 29.8587C49.3176 30.0437 49.2379 30.2182 49.1505 30.3344C48.9865 30.5668 48.5963 30.711 48.3716 30.711C48.3079 30.711 47.9146 30.711 47.901 30.1311C47.8979 29.8424 47.9574 29.5451 48.0316 29.2186ZM59.003 26.1915L58.9257 26.1032C57.9358 26.3038 57.7567 26.3356 56.8473 26.4585L56.7804 26.5253C56.7773 26.5362 56.7746 26.5529 56.7699 26.5681L56.7668 26.5529C56.0898 28.1148 56.1096 27.7779 55.5585 29.0075C55.5554 28.9516 55.5554 28.9166 55.5523 28.8571L55.4143 26.1915L55.3277 26.1032C54.2908 26.3038 54.2663 26.3356 53.3087 26.4585L53.2341 26.5253C53.2236 26.5572 53.2236 26.5922 53.2174 26.6302L53.2236 26.6438C53.3433 27.2556 53.3145 27.1191 53.4346 28.0845C53.4906 28.5583 53.5652 29.0347 53.6212 29.5027C53.7156 30.2858 53.7685 30.6713 53.8839 31.8664C53.2372 32.9336 53.0841 33.3373 52.4615 34.274L52.4657 34.2833L52.0274 34.9766C51.9772 35.0497 51.9318 35.0998 51.868 35.1212C51.7981 35.1558 51.7071 35.162 51.5808 35.162H51.3379L50.9769 36.3629L52.2155 36.3843C52.9426 36.3812 53.3996 36.0411 53.6456 35.5841L54.4245 34.2495H54.412L54.494 34.1554C55.0179 33.0276 59.003 26.1915 59.003 26.1915ZM45.9306 41.9634H45.4051L47.3499 35.531H47.995L48.1998 34.8684L48.2196 35.6052C48.1955 36.0607 48.5539 36.4645 49.4952 36.3977H50.5837L50.9584 35.1591H50.5488C50.3132 35.1591 50.204 35.0996 50.2176 34.9722L50.1978 34.2225H48.1819V34.2264C47.5302 34.24 45.5839 34.2889 45.1898 34.3939C44.713 34.5167 44.2105 34.8781 44.2105 34.8781L44.4079 34.2147H42.5222L42.1293 35.531L40.1585 42.0617H39.7761L39.4011 43.2913H43.1569L43.0309 43.7013H44.8816L45.0044 43.2913H45.5237L45.9306 41.9634ZM44.3896 36.838C44.0876 36.9216 43.5257 37.175 43.5257 37.175L44.0255 35.531H45.5237L45.1622 36.7288C45.1622 36.7288 44.6994 36.756 44.3896 36.838ZM44.4184 39.1865C44.4184 39.1865 43.9477 39.2456 43.638 39.3156C43.3329 39.4081 42.7608 39.6995 42.7608 39.6995L43.2769 37.9888H44.7829L44.4184 39.1865ZM43.5789 41.9785H42.0761L42.5117 40.5347H44.0099L43.5789 41.9785ZM47.1981 37.9888H49.3644L49.0531 38.9969H46.8581L46.5285 40.0991H48.4492L46.9949 42.1468C46.8931 42.2972 46.8017 42.3504 46.7003 42.3928C46.5985 42.4445 46.4648 42.5051 46.3101 42.5051H45.7773L45.4112 43.7122H46.8048C47.5293 43.7122 47.9572 43.3827 48.2731 42.9501L49.2704 41.5852L49.4845 42.9711C49.53 43.2307 49.7165 43.3827 49.8428 43.4417C49.9824 43.5117 50.1265 43.6318 50.3302 43.6497C50.5486 43.659 50.7064 43.6664 50.8113 43.6664H51.4961L51.9073 42.3155H51.6372C51.4821 42.3155 51.2151 42.2894 51.1696 42.2409C51.1242 42.1818 51.1242 42.0908 51.0997 41.9525L50.8824 40.5635H49.9928L50.383 40.0991H52.5738L52.9107 38.9969H50.8824L51.1984 37.9888H53.2205L53.5955 36.7455H47.567L47.1981 37.9888ZM28.9018 42.2592L29.4074 40.5772H31.4854L31.8651 39.3262H29.7852L30.1027 38.2908H32.1352L32.5118 37.0795H27.4261L27.0573 38.2908H28.2127L27.9045 39.3262H26.746L26.362 40.5986H27.5171L26.8432 42.8239C26.7522 43.1185 26.8859 43.2308 26.9706 43.3676C27.0573 43.5009 27.1451 43.5892 27.3426 43.6393C27.5462 43.6848 27.6857 43.712 27.8754 43.712H30.2181L30.6355 42.3261L29.597 42.4687C29.3965 42.4687 28.8412 42.4446 28.9018 42.2592ZM29.1401 34.2071L28.6135 35.1589C28.5008 35.3668 28.3994 35.4958 28.3081 35.5553C28.2276 35.6054 28.0683 35.6264 27.8374 35.6264H27.5626L27.1954 36.844H28.1079C28.5467 36.844 28.8836 36.6831 29.0445 36.6027C29.2175 36.5102 29.2629 36.563 29.3966 36.434L29.7048 36.167H32.5543L32.9325 34.8993H30.8466L31.2108 34.2071H29.1401ZM33.3469 42.2837C33.2983 42.2137 33.3333 42.0905 33.4075 41.834L34.1864 39.2562H36.957C37.3608 39.2504 37.6522 39.2457 37.8419 39.2321C38.0455 39.2107 38.2671 39.138 38.5084 39.0075C38.7575 38.8707 38.885 38.7265 38.9926 38.5609C39.1127 38.3957 39.3055 38.0343 39.4711 37.477L40.45 34.2148L37.5749 34.2315C37.5749 34.2315 36.6896 34.3621 36.2998 34.5063C35.9065 34.6672 35.3445 35.1164 35.3445 35.1164L35.6041 34.2222H33.828L31.3415 42.4687C31.2533 42.7889 31.1942 43.0213 31.1806 43.1608C31.176 43.3112 31.3703 43.4601 31.4962 43.5724C31.6451 43.6847 31.865 43.6665 32.0761 43.6847C32.298 43.7014 32.6135 43.7119 33.0492 43.7119H34.4141L34.8331 42.2973L33.6112 42.4127C33.4806 42.4127 33.3862 42.3428 33.3469 42.2837ZM34.6889 37.5151H37.599L37.414 38.0949C37.388 38.1085 37.3258 38.0662 37.0296 38.1012H34.5097L34.6889 37.5151ZM35.2718 35.5703H38.2064L37.9954 36.2687C37.9954 36.2687 36.6122 36.2551 36.3907 36.2959C35.416 36.4646 34.8467 36.9854 34.8467 36.9854L35.2718 35.5703ZM37.4791 40.0367C37.455 40.1234 37.417 40.1762 37.3637 40.2159C37.3046 40.2539 37.209 40.2675 37.0664 40.2675H36.6517L36.6762 39.5614H34.9514L34.8815 43.0137C34.8788 43.2628 34.9029 43.407 35.0851 43.5224C35.2674 43.6666 35.829 43.6848 36.5849 43.6848H37.6657L38.0559 42.3926L37.115 42.4443L36.8021 42.4626C36.7594 42.4443 36.7186 42.4276 36.6731 42.3821C36.6335 42.3429 36.5666 42.367 36.5775 42.1178L36.5849 41.2329L37.5716 41.1921C38.1045 41.1921 38.3322 41.0188 38.5265 40.8536C38.7119 40.6954 38.7725 40.5135 38.8425 40.2675L39.008 39.484H37.6521L37.4791 40.0367Z" fill="#FEFEFE"/>
</svg>
