<svg width="64" height="64" viewBox="0 0 64 64" fill="none" xmlns="http://www.w3.org/2000/svg">
<g clip-path="url(#clip0_279_4571)">
<path d="M3.23927 21.2388L0.0136719 28.746H2.11287L2.70807 27.242H6.17047L6.76567 28.746H8.91608L5.69047 21.2388H3.23927ZM4.43607 22.9796L5.49207 25.6036H3.38007L4.43607 22.9796Z" fill="#2897F2"/>
<path d="M9.13281 28.7396V21.2324L12.1216 21.2452L13.856 26.0836L15.552 21.2324H18.5152V28.7396H16.64V23.21L14.6496 28.7396H13.0048L11.008 23.21V28.7396H9.13281Z" fill="#2897F2"/>
<path d="M19.8027 28.7396V21.2324H25.9275V22.9092H21.7035V24.1956H25.8251V25.7764H21.6971V27.1076H25.9211V28.7396H19.8027Z" fill="#2897F2"/>
<path d="M27.0098 21.2388V28.746H28.885V26.0772H29.6722L31.925 28.746H34.2162L31.7458 25.9812C32.757 25.898 33.8066 25.0276 33.8066 23.6772C33.8066 22.0964 32.565 21.2452 31.1826 21.2452L27.0098 21.2388ZM28.885 22.9156H31.029C31.541 22.9156 31.9186 23.3188 31.9186 23.7028C31.9186 24.202 31.4322 24.49 31.0546 24.49H28.885V22.9156Z" fill="#2897F2"/>
<path d="M36.4878 28.7396H34.5742V21.2324H36.4878V28.7396Z" fill="#2897F2"/>
<path d="M41.0311 28.7396H40.6151C38.6119 28.7396 37.4023 27.1652 37.4023 25.0212C37.4023 22.826 38.6055 21.2388 41.1271 21.2388H43.2007V23.018H41.0567C40.0327 23.018 39.3031 23.818 39.3031 25.0404C39.3031 26.4932 40.1351 27.1012 41.3255 27.1012H41.8183L41.0311 28.7396Z" fill="#2897F2"/>
<path d="M45.1143 21.2388L41.8887 28.7396H43.9879L44.5831 27.2356H48.0455L48.6407 28.7396H50.7847L47.5591 21.2324L45.1143 21.2388ZM46.3047 22.9796L47.3607 25.6036H45.2487L46.3047 22.9796Z" fill="#2897F2"/>
<path d="M51.002 28.7396V21.2324H53.3892L56.4355 25.9492V21.2324H58.3107V28.7396H56.0004L52.8772 23.9012V28.7396H51.002Z" fill="#2897F2"/>
<path d="M13.6777 41.8724V34.3652H19.8025V36.042H15.5785V37.3284H19.7065V38.9092H15.5785V40.2404H19.8025V41.8724H13.6777Z" fill="#2897F2"/>
<path d="M43.6738 41.8724V34.3652H49.7986V36.042H45.5746V37.3284H49.6834V38.9092H45.5746V40.2404H49.7986V41.8724H43.6738Z" fill="#2897F2"/>
<path d="M20.0392 41.8724L23.0216 38.1668L19.9688 34.3652H22.3303L24.1479 36.714L25.9719 34.3652H28.2439L25.2295 38.1156L28.2183 41.866H25.8567L24.0903 39.5556L22.3687 41.866L20.0392 41.8724Z" fill="#2897F2"/>
<path d="M28.4434 34.3716V41.8788H30.3698V39.5108H32.3474C34.0178 39.5108 35.285 38.6212 35.285 36.8996C35.285 35.4724 34.293 34.378 32.5906 34.378H28.4434V34.3716ZM30.3698 36.0676H32.4498C32.9874 36.0676 33.3778 36.4004 33.3778 36.9316C33.3778 37.4308 32.9938 37.7956 32.4434 37.7956H30.3698V36.0676Z" fill="#2897F2"/>
<path d="M36.0898 34.3652V41.8724H37.965V39.2036H38.7522L41.005 41.8724H43.2962L40.8258 39.1076C41.837 39.0244 42.8866 38.154 42.8866 36.8036C42.8866 35.2228 41.645 34.3716 40.2626 34.3716L36.0898 34.3652ZM37.9714 36.0484H40.1154C40.6274 36.0484 41.005 36.4516 41.005 36.8356C41.005 37.3348 40.5186 37.6228 40.141 37.6228H37.9714V36.0484Z" fill="#2897F2"/>
<path d="M50.6704 41.8724V40.2404H54.4272C54.984 40.2404 55.2208 39.9396 55.2208 39.6132C55.2208 39.2996 54.984 38.9796 54.4272 38.9796H52.7312C51.2592 38.9796 50.4336 38.0836 50.4336 36.7332C50.4336 35.53 51.1888 34.3716 53.3776 34.3716H57.032L56.2448 36.0612H53.0832C52.4816 36.0612 52.296 36.3812 52.296 36.682C52.296 36.9956 52.5264 37.3348 52.9872 37.3348H54.7664C56.4112 37.3348 57.1216 38.2692 57.1216 39.4916C57.1216 40.8036 56.328 41.8788 54.6768 41.8788H50.6704V41.8724Z" fill="#2897F2"/>
<path d="M57.5552 41.8724V40.2404H61.3119C61.8687 40.2404 62.1055 39.9396 62.1055 39.6132C62.1055 39.2996 61.8687 38.9796 61.3119 38.9796H59.6159C58.144 38.9796 57.3184 38.0836 57.3184 36.7332C57.3184 35.53 58.0736 34.3716 60.2623 34.3716H63.9167L63.1295 36.0612H59.9679C59.3663 36.0612 59.1807 36.3812 59.1807 36.682C59.1807 36.9956 59.4111 37.3348 59.8719 37.3348H61.6511C63.2959 37.3348 64.0063 38.2692 64.0063 39.4916C64.0063 40.8036 63.2127 41.8788 61.5615 41.8788H57.5552V41.8724Z" fill="#2897F2"/>
</g>
<defs>
<clipPath id="clip0_279_4571">
<rect width="64" height="64" fill="white"/>
</clipPath>
</defs>
</svg>
