<svg width="64" height="64" viewBox="0 0 64 64" fill="none" xmlns="http://www.w3.org/2000/svg">
<path d="M14.2839 52.9126V50.2648C14.2839 49.2519 13.6182 48.5887 12.4754 48.5887C11.904 48.5887 11.2827 48.7635 10.8555 49.3393C10.5227 48.856 10.0456 48.5887 9.32997 48.5887C8.85288 48.5887 8.37579 48.7224 7.99856 49.2057V48.6761H7V52.9126H7.99856V50.5733C7.99856 49.8226 8.42572 49.4679 9.09142 49.4679C9.75713 49.4679 10.09 49.8638 10.09 50.5733V52.9126H11.0885V50.5733C11.0885 49.8226 11.5656 49.4679 12.1814 49.4679C12.8471 49.4679 13.18 49.8638 13.18 50.5733V52.9126H14.2839ZM29.0959 48.6761H27.476V47.3959H26.4774V48.6761H25.5732V49.5141H26.4774V51.4576C26.4774 52.4293 26.9046 53 28.0474 53C28.4745 53 28.9516 52.8663 29.2845 52.6915L28.996 51.8946C28.7075 52.0694 28.3747 52.1157 28.1361 52.1157C27.659 52.1157 27.4704 51.8483 27.4704 51.4113V49.5141H29.0903V48.6761H29.0959ZM37.5725 48.5835C37.0011 48.5835 36.6183 48.8509 36.3798 49.2005V48.671H35.3812V52.9075H36.3798V50.5219C36.3798 49.8175 36.7126 49.4165 37.334 49.4165C37.5226 49.4165 37.7611 49.4627 37.9553 49.5039L38.2438 48.6195C38.044 48.5835 37.7611 48.5835 37.5725 48.5835ZM24.7632 49.0257C24.2861 48.7172 23.6204 48.5835 22.9048 48.5835C21.762 48.5835 21.002 49.1131 21.002 49.9512C21.002 50.6555 21.5734 51.0566 22.572 51.1851L23.049 51.2314C23.5705 51.3188 23.859 51.4524 23.859 51.6735C23.859 51.982 23.4762 52.2031 22.8105 52.2031C22.1448 52.2031 21.6178 51.982 21.2849 51.7609L20.8078 52.4653C21.3293 52.8201 22.0449 52.9949 22.7606 52.9949C24.092 52.9949 24.8575 52.419 24.8575 51.6272C24.8575 50.8766 24.2362 50.4807 23.2876 50.347L22.8105 50.3008C22.3833 50.2545 22.0505 50.1671 22.0505 49.9049C22.0505 49.5964 22.3833 49.4216 22.9104 49.4216C23.4818 49.4216 24.0531 49.6427 24.3416 49.7763L24.7632 49.0257ZM51.3304 48.5835C50.759 48.5835 50.3762 48.8509 50.1377 49.2005V48.671H49.1391V52.9075H50.1377V50.5219C50.1377 49.8175 50.4705 49.4165 51.0919 49.4165C51.2805 49.4165 51.519 49.4627 51.7132 49.5039L52.0017 48.6298C51.8075 48.5835 51.5246 48.5835 51.3304 48.5835ZM38.5711 50.7943C38.5711 52.0745 39.5252 53 41.0009 53C41.6666 53 42.1437 52.8663 42.6208 52.5167L42.1437 51.7661C41.7609 52.0334 41.3837 52.162 40.951 52.162C40.141 52.162 39.5696 51.6324 39.5696 50.7943C39.5696 49.9974 40.141 49.4679 40.951 49.4267C41.3781 49.4267 41.7609 49.5604 42.1437 49.8226L42.6208 49.072C42.1437 48.7172 41.6666 48.5887 41.0009 48.5887C39.5252 48.5835 38.5711 49.5141 38.5711 50.7943ZM47.8077 50.7943V48.6761H46.8092V49.2057C46.4763 48.8098 45.9992 48.5887 45.3779 48.5887C44.0909 48.5887 43.0923 49.5141 43.0923 50.7943C43.0923 52.0745 44.0909 53 45.3779 53C46.0436 53 46.5207 52.7789 46.8092 52.383V52.9126H47.8077V50.7943ZM44.1408 50.7943C44.1408 50.0437 44.6623 49.4267 45.5221 49.4267C46.3321 49.4267 46.9035 50.0026 46.9035 50.7943C46.9035 51.545 46.3321 52.162 45.5221 52.162C44.6678 52.1157 44.1408 51.5398 44.1408 50.7943ZM32.1914 48.5835C30.86 48.5835 29.9058 49.4679 29.9058 50.7892C29.9058 52.1157 30.86 52.9949 32.2413 52.9949C32.907 52.9949 33.5727 52.8201 34.0997 52.419L33.6227 51.7558C33.2399 52.0231 32.7628 52.1979 32.2912 52.1979C31.6699 52.1979 31.0541 51.9306 30.9099 51.1851H34.2884C34.2884 51.0514 34.2884 50.964 34.2884 50.8303C34.3327 49.4679 33.4729 48.5835 32.1914 48.5835ZM32.1914 49.3805C32.8127 49.3805 33.2399 49.7352 33.3342 50.3933H30.9543C31.0486 49.8226 31.4758 49.3805 32.1914 49.3805ZM57 50.7943V47H56.0014V49.2057C55.6686 48.8098 55.1915 48.5887 54.5702 48.5887C53.2831 48.5887 52.2846 49.5141 52.2846 50.7943C52.2846 52.0745 53.2831 53 54.5702 53C55.2359 53 55.713 52.7789 56.0014 52.383V52.9126H57V50.7943ZM53.3331 50.7943C53.3331 50.0437 53.8545 49.4267 54.7144 49.4267C55.5244 49.4267 56.0958 50.0026 56.0958 50.7943C56.0958 51.545 55.5244 52.162 54.7144 52.162C53.8545 52.1157 53.3331 51.5398 53.3331 50.7943ZM19.9036 50.7943V48.6761H18.905V49.2057C18.5722 48.8098 18.0951 48.5887 17.4738 48.5887C16.1867 48.5887 15.1882 49.5141 15.1882 50.7943C15.1882 52.0745 16.1867 53 17.4738 53C18.1395 53 18.6166 52.7789 18.905 52.383V52.9126H19.9036V50.7943ZM16.1923 50.7943C16.1923 50.0437 16.7137 49.4267 17.5736 49.4267C18.3836 49.4267 18.955 50.0026 18.955 50.7943C18.955 51.545 18.3836 52.162 17.5736 52.162C16.7137 52.1157 16.1923 51.5398 16.1923 50.7943Z" fill="#C7C7C7"/>
<path d="M39.2852 14.6038H24.6719V40.8204H39.2852V14.6038Z" fill="#C7C7C7"/>
<path d="M25.6445 27.7123C25.6445 22.3859 28.1521 17.6585 32 14.604C29.1681 12.3806 25.5959 11.0369 21.6994 11.0369C12.4688 11.0369 5 18.495 5 27.7123C5 36.9297 12.4688 44.3878 21.6994 44.3878C25.5959 44.3878 29.1681 43.044 32 40.8207C28.1467 37.8094 25.6445 33.0388 25.6445 27.7123Z" fill="#D8D8D8"/>
<path d="M59 27.7123C59 36.9297 51.5312 44.3878 42.3006 44.3878C38.4041 44.3878 34.8319 43.044 32 40.8207C35.8965 37.7608 38.3555 33.0388 38.3555 27.7123C38.3555 22.3859 35.8479 17.6585 32 14.604C34.8265 12.3806 38.3987 11.0369 42.2952 11.0369C51.5312 11.0369 59 18.5435 59 27.7123Z" fill="#D8D8D8"/>
</svg>
