<svg width="20" height="20" viewBox="0 0 20 20" fill="none" xmlns="http://www.w3.org/2000/svg">
<path d="M16.041 1.66675C15.0056 1.66675 14.166 2.50633 14.166 3.54175V16.4584C14.166 17.4938 15.0056 18.3334 16.041 18.3334C17.0764 18.3334 17.916 17.4938 17.916 16.4584V3.54175C17.916 2.50633 17.0764 1.66675 16.041 1.66675ZM7.291 2.08341C7.20818 2.08224 7.12595 2.09754 7.04909 2.12843C6.97224 2.15931 6.90229 2.20516 6.84331 2.26331C6.78433 2.32147 6.73749 2.39076 6.70552 2.46717C6.67356 2.54358 6.65709 2.62559 6.65709 2.70841C6.65709 2.79124 6.67356 2.87325 6.70552 2.94966C6.73749 3.02607 6.78433 3.09536 6.84331 3.15351C6.90229 3.21167 6.97224 3.25752 7.04909 3.2884C7.12595 3.31929 7.20818 3.33459 7.291 3.33341H8.61586L1.87596 9.32463C1.81225 9.37845 1.75997 9.44447 1.72217 9.51881C1.68438 9.59315 1.66184 9.6743 1.65589 9.75748C1.64994 9.84066 1.66069 9.92419 1.68752 10.0032C1.71435 10.0821 1.7567 10.1549 1.81209 10.2173C1.86748 10.2796 1.93479 10.3302 2.01005 10.3662C2.0853 10.4021 2.16699 10.4226 2.25029 10.4265C2.3336 10.4304 2.41683 10.4175 2.4951 10.3887C2.57337 10.36 2.64509 10.3158 2.70603 10.2589L9.58266 4.1464V5.62508C9.58149 5.7079 9.59679 5.79013 9.62768 5.86698C9.65856 5.94384 9.70441 6.01379 9.76256 6.07277C9.82071 6.13175 9.89001 6.17859 9.96642 6.21055C10.0428 6.24252 10.1248 6.25898 10.2077 6.25898C10.2905 6.25898 10.3725 6.24252 10.4489 6.21055C10.5253 6.17859 10.5946 6.13175 10.6528 6.07277C10.7109 6.01379 10.7568 5.94384 10.7876 5.86698C10.8185 5.79013 10.8338 5.7079 10.8327 5.62508V2.70841C10.8326 2.54266 10.7668 2.3837 10.6496 2.26649C10.5324 2.14928 10.3734 2.08343 10.2077 2.08341H7.291ZM9.99933 7.91675C8.96391 7.91675 8.12433 8.75633 8.12433 9.79175V16.4584C8.12433 17.4938 8.96391 18.3334 9.99933 18.3334C11.0347 18.3334 11.8743 17.4938 11.8743 16.4584V9.79175C11.8743 8.75633 11.0347 7.91675 9.99933 7.91675ZM3.95766 11.6667C2.92225 11.6667 2.08266 12.5063 2.08266 13.5417V16.4584C2.08266 17.4938 2.92225 18.3334 3.95766 18.3334C4.99308 18.3334 5.83266 17.4938 5.83266 16.4584V13.5417C5.83266 12.5063 4.99308 11.6667 3.95766 11.6667Z" fill="black"/>
</svg>
