<svg width="18" height="18" viewBox="0 0 18 18" fill="none" xmlns="http://www.w3.org/2000/svg">
<path d="M15.3164 17.25H2.68359C1.61735 17.25 0.75 16.3827 0.75 15.3164V2.68359C0.75 1.61735 1.61735 0.75 2.68359 0.75H15.3164C16.3827 0.75 17.25 1.61735 17.25 2.68359V15.3164C17.25 16.3827 16.3827 17.25 15.3164 17.25ZM2.68359 2.03906C2.32822 2.03906 2.03906 2.32822 2.03906 2.68359V15.3164C2.03906 15.6718 2.32822 15.9609 2.68359 15.9609H15.3164C15.6718 15.9609 15.9609 15.6718 15.9609 15.3164V2.68359C15.9609 2.32822 15.6718 2.03906 15.3164 2.03906H2.68359ZM14.2064 6.10747C14.4439 5.84227 14.4214 5.43477 14.1562 5.19729C13.891 4.95978 13.4835 4.98226 13.246 5.24748L8.40247 10.6567C8.02627 11.0768 7.37726 11.1029 6.96851 10.7144L4.72275 8.57957C4.46477 8.33434 4.05684 8.34466 3.8116 8.60263C3.56635 8.86061 3.57667 9.26856 3.83465 9.51381L7.04291 12.5637C7.45166 12.9523 8.10068 12.9262 8.47689 12.506L14.2064 6.10747Z" fill="#FA6410"/>
</svg>
