<svg width="18" height="18" viewBox="0 0 18 18" fill="none" xmlns="http://www.w3.org/2000/svg">
<path d="M15.3164 17.25H2.68359C1.61735 17.25 0.75 16.3827 0.75 15.3164V2.68359C0.75 1.61735 1.61735 0.75 2.68359 0.75H15.3164C16.3827 0.75 17.25 1.61735 17.25 2.68359V15.3164C17.25 16.3827 16.3827 17.25 15.3164 17.25ZM2.68359 2.03906C2.32822 2.03906 2.03906 2.32822 2.03906 2.68359V15.3164C2.03906 15.6718 2.32822 15.9609 2.68359 15.9609H15.3164C15.6718 15.9609 15.9609 15.6718 15.9609 15.3164V2.68359C15.9609 2.32822 15.6718 2.03906 15.3164 2.03906H2.68359Z" fill="black"/>
</svg>
