<svg width="40" height="40" viewBox="0 0 40 40" fill="none" xmlns="http://www.w3.org/2000/svg">
<path d="M2.91699 8.33331C2.22533 8.33331 1.66699 8.89165 1.66699 9.58331C1.66699 10.275 2.22533 10.8333 2.91699 10.8333H13.7503C14.442 10.8333 15.0003 11.3916 15.0003 12.0833C15.0003 12.775 14.442 13.3333 13.7503 13.3333H2.91699C2.22533 13.3333 1.66699 13.8916 1.66699 14.5833C1.66699 15.275 2.22533 15.8333 2.91699 15.8333H10.417C11.1087 15.8333 11.667 16.3916 11.667 17.0833C11.667 17.775 11.1087 18.3333 10.417 18.3333H2.91699C2.22533 18.3333 1.66699 18.8916 1.66699 19.5833C1.66699 20.275 2.22533 20.8333 2.91699 20.8333H7.08366C7.77532 20.8333 8.33366 21.3916 8.33366 22.0833C8.33366 22.775 7.77532 23.3333 7.08366 23.3333H2.91699C2.22533 23.3333 1.66699 23.8916 1.66699 24.5833V26.25C1.66699 28.3166 3.35033 30 5.41699 30H6.01107C6.55776 31.9197 8.32563 33.3333 10.417 33.3333C12.5084 33.3333 14.2762 31.9197 14.8229 30H22.5003V12.0833C22.5003 10.0166 20.817 8.33331 18.7503 8.33331H2.91699ZM25.0003 11.6666V28.75C25.0003 31.275 27.0587 33.3333 29.5837 33.3333C31.675 33.3333 33.4429 31.9197 33.9896 30H34.5837C36.6587 30 38.3337 28.325 38.3337 26.25V20.9505C38.3337 20.4255 38.2248 19.9004 38.0081 19.4254L35.5505 13.8916C34.9505 12.5416 33.6093 11.6666 32.126 11.6666H25.0003ZM28.3337 14.1666H32.126C32.6201 14.1666 33.0669 14.4572 33.2669 14.9088L34.6374 17.9948C34.8824 18.5456 34.4798 19.1666 33.8773 19.1666H28.3337C27.8737 19.1666 27.5003 18.7933 27.5003 18.3333V15C27.5003 14.54 27.8737 14.1666 28.3337 14.1666ZM10.417 26.6666C11.567 26.6666 12.5003 27.6 12.5003 28.75C12.5003 29.9 11.567 30.8333 10.417 30.8333C9.26699 30.8333 8.33366 29.9 8.33366 28.75C8.33366 27.6 9.26699 26.6666 10.417 26.6666ZM29.5837 26.6666C30.7337 26.6666 31.667 27.6 31.667 28.75C31.667 29.9 30.7337 30.8333 29.5837 30.8333C28.4337 30.8333 27.5003 29.9 27.5003 28.75C27.5003 27.6 28.4337 26.6666 29.5837 26.6666Z" fill="#FF6D1B"/>
</svg>
