<svg width="15" height="15" viewBox="0 0 15 15" fill="none" xmlns="http://www.w3.org/2000/svg">
<g clip-path="url(#clip0_227_3141)">
<path d="M7.49089 0.500071C7.33631 0.502485 7.18901 0.566117 7.08134 0.676992C6.97368 0.787866 6.91445 0.936917 6.91667 1.0914V9.40042L5.5791 8.06366C5.52473 8.0077 5.45967 7.96321 5.38778 7.93283C5.3159 7.90245 5.23864 7.8868 5.16059 7.88679C5.0445 7.88682 4.93106 7.92146 4.83477 7.98629C4.73849 8.05111 4.66375 8.14317 4.62012 8.25069C4.57648 8.3582 4.56594 8.47628 4.58983 8.58982C4.61372 8.70336 4.67096 8.80719 4.75423 8.88804L7.08757 11.22C7.19697 11.3293 7.34532 11.3906 7.5 11.3906C7.65468 11.3906 7.80303 11.3293 7.91244 11.22L10.2458 8.88804C10.3018 8.83432 10.3464 8.76997 10.3772 8.69877C10.408 8.62758 10.4243 8.55095 10.4251 8.47339C10.4259 8.39583 10.4112 8.3189 10.3818 8.24709C10.3525 8.17528 10.3091 8.11004 10.2542 8.05519C10.1994 8.00035 10.1341 7.957 10.0622 7.92768C9.99038 7.89836 9.9134 7.88367 9.83579 7.88446C9.75818 7.88524 9.68151 7.9015 9.61027 7.93227C9.53903 7.96304 9.47465 8.00771 9.4209 8.06366L8.08333 9.40042V1.0914C8.08445 1.01338 8.06989 0.935916 8.0405 0.863616C8.01112 0.791317 7.96751 0.725649 7.91226 0.670504C7.85701 0.61536 7.79124 0.57186 7.71886 0.542584C7.64648 0.513308 7.56896 0.498852 7.49089 0.500071ZM2.63889 4.78363C1.46453 4.78363 0.5 5.74758 0.5 6.92123V12.3624C0.5 13.536 1.46453 14.5 2.63889 14.5H12.3611C13.5355 14.5 14.5 13.536 14.5 12.3624V6.92123C14.5 5.74758 13.5355 4.78363 12.3611 4.78363H10.0278C9.95048 4.78253 9.87373 4.79681 9.802 4.82561C9.73027 4.85442 9.66498 4.89719 9.60993 4.95143C9.55489 5.00568 9.51117 5.07031 9.48134 5.14159C9.4515 5.21286 9.43614 5.28935 9.43614 5.36661C9.43614 5.44387 9.4515 5.52036 9.48134 5.59163C9.51117 5.66291 9.55489 5.72754 9.60993 5.78178C9.66498 5.83603 9.73027 5.8788 9.802 5.9076C9.87373 5.93641 9.95048 5.95068 10.0278 5.94959H12.3611C12.9049 5.94959 13.3333 6.3778 13.3333 6.92123V12.3624C13.3333 12.9058 12.9049 13.334 12.3611 13.334H2.63889C2.09513 13.334 1.66667 12.9058 1.66667 12.3624V6.92123C1.66667 6.3778 2.09513 5.94959 2.63889 5.94959H4.97222C5.04952 5.95068 5.12627 5.93641 5.198 5.9076C5.26973 5.8788 5.33502 5.83603 5.39007 5.78178C5.44511 5.72754 5.48883 5.66291 5.51866 5.59163C5.5485 5.52036 5.56386 5.44387 5.56386 5.36661C5.56386 5.28935 5.5485 5.21286 5.51866 5.14159C5.48883 5.07031 5.44511 5.00568 5.39007 4.95143C5.33502 4.89719 5.26973 4.85442 5.198 4.82561C5.12627 4.79681 5.04952 4.78253 4.97222 4.78363H2.63889Z" fill="#FA6410"/>
</g>
<defs>
<clipPath id="clip0_227_3141">
<rect width="14" height="14" fill="white" transform="translate(0.5 0.5)"/>
</clipPath>
</defs>
</svg>
