<svg width="40" height="40" viewBox="0 0 40 40" fill="none" xmlns="http://www.w3.org/2000/svg">
<path d="M10.4163 4.16669C7.8998 4.16669 5.83295 6.23354 5.83295 8.75002V13.75V33.4001C5.55162 33.496 5.31369 33.6891 5.16182 33.9446C5.00996 34.2001 4.9541 34.5013 5.00427 34.7943C5.05443 35.0873 5.20734 35.3528 5.43557 35.5432C5.66379 35.7336 5.9524 35.8365 6.24961 35.8334H6.87787C7.01206 35.8554 7.14895 35.8554 7.28314 35.8334H22.7112C22.8454 35.8554 22.9823 35.8554 23.1165 35.8334H23.7496C24.0468 35.8365 24.3354 35.7336 24.5637 35.5432C24.7919 35.3528 24.9448 35.0873 24.995 34.7943C25.0451 34.5013 24.9893 34.2001 24.8374 33.9446C24.6855 33.6891 24.4476 33.496 24.1663 33.4001V25.8334H27.9163C28.1621 25.8334 28.3329 26.0042 28.3329 26.25V29.1667C28.3329 31.4531 30.2132 33.3334 32.4996 33.3334C34.786 33.3334 36.6663 31.4531 36.6663 29.1667V18.3057C36.6663 17.1497 36.1312 16.0549 35.2177 15.3451L28.6829 10.2637C28.4531 10.0791 28.1654 9.9817 27.8707 9.98863C27.6114 9.99523 27.3606 10.0823 27.153 10.2378C26.9455 10.3933 26.7914 10.6095 26.7122 10.8565C26.6329 11.1035 26.6325 11.369 26.7109 11.6162C26.7893 11.8634 26.9426 12.0802 27.1497 12.2363L29.9996 14.4531V18.3334C29.9996 20.1742 31.4921 21.6667 33.3329 21.6667H34.1663V29.1667C34.1663 30.102 33.4349 30.8334 32.4996 30.8334C31.5643 30.8334 30.8329 30.102 30.8329 29.1667V26.25C30.8329 24.6542 29.5121 23.3334 27.9163 23.3334H24.1663V13.75V8.75002C24.1663 6.23354 22.0994 4.16669 19.5829 4.16669H10.4163ZM10.4163 6.66669H19.5829C20.7481 6.66669 21.6663 7.58483 21.6663 8.75002V13.75C21.6663 14.9152 20.7481 15.8334 19.5829 15.8334H10.4163C9.25109 15.8334 8.33295 14.9152 8.33295 13.75V8.75002C8.33295 7.58483 9.25109 6.66669 10.4163 6.66669Z" fill="#FF6D1B"/>
</svg>
