<svg width="40" height="40" viewBox="0 0 40 40" fill="none" xmlns="http://www.w3.org/2000/svg">
<path d="M20 0.833374C19.8389 0.83327 19.6779 0.919286 19.5996 1.09054L19.1911 1.98897L17.946 2.18103C17.5901 2.23603 17.4477 2.67231 17.7018 2.92647L18.5449 3.76794L18.3691 4.81938C18.3091 5.18104 18.692 5.45173 19.0137 5.27673L20 4.73962L20.9863 5.27836C21.308 5.45336 21.6892 5.18104 21.6292 4.81938L21.4551 3.76957L22.2982 2.92647C22.5523 2.67231 22.4099 2.23603 22.054 2.18103L20.8089 1.9906L20.4004 1.09054C20.3225 0.918869 20.1611 0.833478 20 0.833374ZM13.3333 3.33337C13.1722 3.33327 13.0113 3.41929 12.9329 3.59054L12.5244 4.48897L11.2793 4.68103C10.9235 4.73603 10.781 5.17231 11.0352 5.42647L11.8783 6.26794L11.7025 7.31938C11.6425 7.68104 12.0253 7.95173 12.347 7.77673L13.3333 7.23962L14.3197 7.77836C14.6413 7.95336 15.0226 7.68104 14.9626 7.31938L14.7884 6.26957L15.6315 5.42647C15.8857 5.17231 15.7432 4.73603 15.3874 4.68103L14.1423 4.4906L13.7337 3.59054C13.6558 3.41887 13.4945 3.33348 13.3333 3.33337ZM26.6667 3.33337C26.5055 3.33348 26.3442 3.41887 26.2663 3.59054L25.8577 4.4906L24.6126 4.68103C24.2568 4.73603 24.1143 5.17231 24.3685 5.42647L25.2116 6.26957L25.0374 7.31938C24.9774 7.68104 25.3587 7.95336 25.6803 7.77836L26.6667 7.23962L27.653 7.77673C27.9747 7.95173 28.3575 7.68104 28.2975 7.31938L28.1217 6.26794L28.9648 5.42647C29.219 5.17231 29.0765 4.73603 28.7207 4.68103L27.4756 4.48897L27.0671 3.59054C26.9887 3.41929 26.8278 3.33327 26.6667 3.33337ZM19.9398 7.50167C19.7714 7.50978 19.6064 7.55186 19.4548 7.62537L7.57975 13.3838C7.57867 13.3844 7.57758 13.3849 7.5765 13.3855C6.01167 14.1507 5 15.7487 5 17.5082V34.5834C5 35.7235 5.94318 36.6667 7.08333 36.6667H15.4167C15.7482 36.6667 16.0661 36.535 16.3005 36.3006C16.5349 36.0661 16.6666 35.7482 16.6667 35.4167V27.9167C16.6667 27.2235 17.2235 26.6667 17.9167 26.6667H22.0833C22.7765 26.6667 23.3333 27.2235 23.3333 27.9167V35.4167C23.3334 35.7482 23.4651 36.0661 23.6995 36.3006C23.9339 36.535 24.2518 36.6667 24.5833 36.6667H32.9167C34.0568 36.6667 35 35.7235 35 34.5834V17.5082C35 15.7487 33.9883 14.1507 32.4235 13.3855C32.4224 13.3849 32.4213 13.3844 32.4202 13.3838L20.5452 7.62537C20.357 7.53411 20.1488 7.49158 19.9398 7.50167ZM9.16667 17.5H12.5C12.9583 17.5 13.3333 17.875 13.3333 18.3334V21.6667C13.3333 22.125 12.9583 22.5 12.5 22.5H9.16667C8.70833 22.5 8.33333 22.125 8.33333 21.6667V18.3334C8.33333 17.875 8.70833 17.5 9.16667 17.5ZM18.3333 17.5H21.6667C22.125 17.5 22.5 17.875 22.5 18.3334V21.6667C22.5 22.125 22.125 22.5 21.6667 22.5H18.3333C17.875 22.5 17.5 22.125 17.5 21.6667V18.3334C17.5 17.875 17.875 17.5 18.3333 17.5ZM27.5 17.5H30.8333C31.2917 17.5 31.6667 17.875 31.6667 18.3334V21.6667C31.6667 22.125 31.2917 22.5 30.8333 22.5H27.5C27.0417 22.5 26.6667 22.125 26.6667 21.6667V18.3334C26.6667 17.875 27.0417 17.5 27.5 17.5ZM9.16667 27.5H12.5C12.9583 27.5 13.3333 27.875 13.3333 28.3334V31.6667C13.3333 32.125 12.9583 32.5 12.5 32.5H9.16667C8.70833 32.5 8.33333 32.125 8.33333 31.6667V28.3334C8.33333 27.875 8.70833 27.5 9.16667 27.5ZM27.5 27.5H30.8333C31.2917 27.5 31.6667 27.875 31.6667 28.3334V31.6667C31.6667 32.125 31.2917 32.5 30.8333 32.5H27.5C27.0417 32.5 26.6667 32.125 26.6667 31.6667V28.3334C26.6667 27.875 27.0417 27.5 27.5 27.5Z" fill="#FF6D1B"/>
</svg>
