<svg width="106" height="33" viewBox="0 0 106 33" fill="none" xmlns="http://www.w3.org/2000/svg">
<rect y="0.5" width="32" height="32" rx="12" fill="#FA6410"/>
<path d="M13.0664 5.83357C12.93 5.83768 12.7974 5.87954 12.6827 5.95463C12.5681 6.02971 12.4758 6.13518 12.4157 6.25965C12.3557 6.38413 12.3302 6.5229 12.3421 6.66101C12.3539 6.79911 12.4026 6.93131 12.4829 7.04336L15.3152 11.121C15.2459 11.1159 15.1768 11.1077 15.1074 11.1061C14.02 11.081 12.9233 11.4858 12.0946 12.3278L11.7327 12.6957C10.8512 13.5916 10.4605 14.7959 10.5443 15.9691L6.5335 13.0903C6.45337 13.0289 6.36192 12.9845 6.26457 12.9597C6.16722 12.9349 6.06597 12.9302 5.96681 12.946C5.86765 12.9617 5.77261 12.9975 5.68733 13.0513C5.60205 13.1051 5.52827 13.1757 5.47035 13.259C5.41244 13.3423 5.37159 13.4366 5.35021 13.5363C5.32883 13.6359 5.32736 13.7389 5.3459 13.8392C5.36444 13.9394 5.40259 14.0349 5.45811 14.1198C5.51363 14.2048 5.58537 14.2776 5.66909 14.3339L11.5112 18.5265C11.4043 19.0209 11.3463 19.5334 11.3463 20.0586C11.3463 23.9754 14.4861 27.1666 18.3397 27.1666C22.1933 27.1666 25.333 23.9754 25.333 20.0586C25.333 18.719 24.9587 17.4686 24.3213 16.3974C24.3302 16.3491 24.3344 16.2999 24.334 16.2507V13.1796C24.334 12.3748 24.0824 11.5903 23.6169 10.9395L20.1943 6.15585C20.1219 6.0517 20.0249 5.9677 19.9122 5.91156C19.7996 5.85543 19.6748 5.82895 19.5494 5.83456C19.4132 5.84062 19.2812 5.88435 19.1676 5.96104C19.054 6.03773 18.9632 6.14446 18.9049 6.26974C18.8465 6.39503 18.823 6.53411 18.8367 6.672C18.8504 6.8099 18.9008 6.94138 18.9826 7.05229L22.4051 11.8359C22.6849 12.227 22.8354 12.6968 22.8354 13.1796V14.6234C21.6382 13.5986 20.1005 12.9747 18.4226 12.9545L13.7064 6.16477C13.6355 6.05952 13.5398 5.97403 13.4279 5.91616C13.3161 5.85829 13.1918 5.82989 13.0664 5.83357V5.83357ZM15.0742 12.6173C15.764 12.6331 16.4471 12.9264 16.9562 13.4929C16.9632 13.5007 16.9704 13.5083 16.9777 13.5158L17.8528 14.7751C18.1701 15.232 18.3397 15.7774 18.3397 16.337C18.3397 17.8409 17.1559 19.0441 15.6762 19.0441C15.1264 19.0441 14.5902 18.8703 14.1405 18.5483H14.1396L12.9063 17.6638C12.8975 17.6546 12.8884 17.6457 12.879 17.637C11.7642 16.6022 11.7258 14.8574 12.7932 13.7726L13.1542 13.4057C13.6881 12.8631 14.3845 12.6015 15.0742 12.6173ZM19.4568 14.5887C21.9615 15.1106 23.8344 17.354 23.8344 20.0586C23.8344 23.1523 21.3835 25.6434 18.3397 25.6434C15.2958 25.6434 12.8449 23.1523 12.8449 20.0586C12.8449 19.8713 12.8575 19.6874 12.8751 19.5052L13.2761 19.7928C13.9782 20.2959 14.8166 20.5673 15.6762 20.5673C17.9659 20.5673 19.8382 18.6642 19.8382 16.337C19.8382 15.7303 19.7015 15.1361 19.4568 14.5887Z" fill="white"/>
<path d="M42 23.996L44.328 7.19604H46.848L50.952 14.852L55.032 7.19604H57.552L59.88 23.996H56.688L55.08 11.372L55.92 11.54L50.952 20.468L45.96 11.564L46.8 11.396L45.192 23.996H42Z" fill="white"/>
<path d="M63.1822 29.804L65.8463 23.204L60.8542 11.996H64.1663L67.2383 19.724L70.3582 11.996H73.6702L66.1583 29.804H63.1822Z" fill="white"/>
<path d="M77.3441 23.996V10.172H72.5921V7.19604H85.1681V10.172H80.4161V23.996H77.3441Z" fill="white"/>
<path d="M87.2057 23.996V11.996H90.1817V23.996H87.2057ZM87.2057 10.172V7.19604H90.1817V10.172H87.2057Z" fill="white"/>
<path d="M93.4513 29.804V11.996H95.8513L96.4273 13.988L95.5393 13.676C96.0913 13.108 96.6913 12.656 97.3393 12.32C97.9873 11.976 98.7793 11.804 99.7153 11.804C100.891 11.804 101.879 12.088 102.679 12.656C103.479 13.224 104.083 13.98 104.491 14.924C104.907 15.868 105.115 16.9 105.115 18.02C105.115 19.14 104.907 20.172 104.491 21.116C104.083 22.06 103.479 22.816 102.679 23.384C101.879 23.952 100.891 24.236 99.7153 24.236C98.7793 24.236 98.0193 24.108 97.4353 23.852C96.8513 23.596 96.2593 23.188 95.6593 22.628L96.4273 22.028V29.804H93.4513ZM99.2593 21.788C100.147 21.788 100.835 21.44 101.323 20.744C101.819 20.04 102.067 19.132 102.067 18.02C102.067 16.9 101.819 15.992 101.323 15.296C100.835 14.6 100.147 14.252 99.2593 14.252C98.5713 14.252 98.0073 14.412 97.5673 14.732C97.1273 15.052 96.8033 15.496 96.5953 16.064C96.3873 16.624 96.2833 17.276 96.2833 18.02C96.2833 18.764 96.3873 19.42 96.5953 19.988C96.8033 20.548 97.1273 20.988 97.5673 21.308C98.0073 21.628 98.5713 21.788 99.2593 21.788Z" fill="white"/>
</svg>
