<svg width="106" height="32" viewBox="0 0 106 32" fill="none" xmlns="http://www.w3.org/2000/svg">
<rect width="32" height="32" rx="12" fill="white"/>
<path d="M13.0664 5.33381C12.93 5.33793 12.7974 5.37979 12.6827 5.45487C12.5681 5.52995 12.4758 5.63542 12.4157 5.7599C12.3557 5.88438 12.3302 6.02315 12.3421 6.16125C12.3539 6.29936 12.4026 6.43156 12.4829 6.54361L15.3152 10.6212C15.2459 10.6161 15.1768 10.6079 15.1074 10.6063C14.02 10.5812 12.9233 10.986 12.0946 11.828L11.7327 12.1959C10.8512 13.0918 10.4605 14.2962 10.5443 15.4693L6.5335 12.5906C6.45337 12.5292 6.36192 12.4848 6.26457 12.46C6.16722 12.4352 6.06597 12.4305 5.96681 12.4462C5.86765 12.4619 5.77261 12.4978 5.68733 12.5515C5.60205 12.6053 5.52827 12.6759 5.47035 12.7592C5.41244 12.8426 5.37159 12.9368 5.35021 13.0365C5.32883 13.1362 5.32736 13.2392 5.3459 13.3394C5.36444 13.4397 5.40259 13.5351 5.45811 13.6201C5.51363 13.7051 5.58537 13.7778 5.66909 13.8341L11.5112 18.0267C11.4043 18.5212 11.3463 19.0336 11.3463 19.5588C11.3463 23.4756 14.4861 26.6668 18.3397 26.6668C22.1933 26.6668 25.333 23.4756 25.333 19.5588C25.333 18.2192 24.9587 16.9689 24.3213 15.8977C24.3302 15.8493 24.3344 15.8001 24.334 15.7509V12.6798C24.334 11.8751 24.0824 11.0905 23.6169 10.4397L20.1943 5.65609C20.1219 5.55194 20.0249 5.46794 19.9122 5.41181C19.7996 5.35567 19.6748 5.32919 19.5494 5.3348C19.4132 5.34087 19.2812 5.3846 19.1676 5.46128C19.054 5.53797 18.9632 5.6447 18.9049 5.76999C18.8465 5.89527 18.823 6.03435 18.8367 6.17225C18.8504 6.31014 18.9008 6.44163 18.9826 6.55253L22.4051 11.3362C22.6849 11.7272 22.8354 12.197 22.8354 12.6798V14.1237C21.6382 13.0989 20.1005 12.4749 18.4226 12.4547L13.7064 5.66502C13.6355 5.55976 13.5398 5.47428 13.4279 5.41641C13.3161 5.35854 13.1918 5.33014 13.0664 5.33381ZM15.0742 12.1176C15.764 12.1334 16.4471 12.4266 16.9562 12.9932C16.9632 13.0009 16.9704 13.0085 16.9777 13.016L17.8528 14.2754C18.1701 14.7322 18.3397 15.2777 18.3397 15.8372C18.3397 17.3412 17.1559 18.5444 15.6762 18.5444C15.1264 18.5444 14.5902 18.3706 14.1405 18.0485H14.1396L12.9063 17.164C12.8975 17.1548 12.8884 17.1459 12.879 17.1372C11.7642 16.1024 11.7258 14.3577 12.7932 13.2728L13.1542 12.9059C13.6881 12.3634 14.3845 12.1018 15.0742 12.1176ZM19.4568 14.0889C21.9615 14.6108 23.8344 16.8543 23.8344 19.5588C23.8344 22.6525 21.3835 25.1437 18.3397 25.1437C15.2958 25.1437 12.8449 22.6525 12.8449 19.5588C12.8449 19.3715 12.8575 19.1876 12.8751 19.0055L13.2761 19.293C13.9782 19.7962 14.8166 20.0675 15.6762 20.0675C17.9659 20.0675 19.8382 18.1644 19.8382 15.8372C19.8382 15.2305 19.7015 14.6363 19.4568 14.0889Z" fill="black"/>
<path d="M42 23.4958L44.328 6.6958H46.848L50.952 14.3518L55.032 6.6958H57.552L59.88 23.4958H56.688L55.08 10.8718L55.92 11.0398L50.952 19.9678L45.96 11.0638L46.8 10.8958L45.192 23.4958H42Z" fill="white"/>
<path d="M63.1822 29.3038L65.8463 22.7038L60.8542 11.4958H64.1663L67.2383 19.2238L70.3582 11.4958H73.6702L66.1583 29.3038H63.1822Z" fill="white"/>
<path d="M77.3441 23.4958V9.6718H72.5921V6.6958H85.1681V9.6718H80.4161V23.4958H77.3441Z" fill="white"/>
<path d="M87.2057 23.4958V11.4958H90.1817V23.4958H87.2057ZM87.2057 9.6718V6.6958H90.1817V9.6718H87.2057Z" fill="white"/>
<path d="M93.4513 29.3038V11.4958H95.8513L96.4273 13.4878L95.5393 13.1758C96.0913 12.6078 96.6913 12.1558 97.3393 11.8198C97.9873 11.4758 98.7793 11.3038 99.7153 11.3038C100.891 11.3038 101.879 11.5878 102.679 12.1558C103.479 12.7238 104.083 13.4798 104.491 14.4238C104.907 15.3678 105.115 16.3998 105.115 17.5198C105.115 18.6398 104.907 19.6718 104.491 20.6158C104.083 21.5598 103.479 22.3158 102.679 22.8838C101.879 23.4518 100.891 23.7358 99.7153 23.7358C98.7793 23.7358 98.0193 23.6078 97.4353 23.3518C96.8513 23.0958 96.2593 22.6878 95.6593 22.1278L96.4273 21.5278V29.3038H93.4513ZM99.2593 21.2878C100.147 21.2878 100.835 20.9398 101.323 20.2438C101.819 19.5398 102.067 18.6318 102.067 17.5198C102.067 16.3998 101.819 15.4918 101.323 14.7958C100.835 14.0998 100.147 13.7518 99.2593 13.7518C98.5713 13.7518 98.0073 13.9118 97.5673 14.2318C97.1273 14.5518 96.8033 14.9958 96.5953 15.5638C96.3873 16.1238 96.2833 16.7758 96.2833 17.5198C96.2833 18.2638 96.3873 18.9198 96.5953 19.4878C96.8033 20.0478 97.1273 20.4878 97.5673 20.8078C98.0073 21.1278 98.5713 21.2878 99.2593 21.2878Z" fill="white"/>
</svg>
