<svg width="82" height="26" viewBox="0 0 82 26" fill="none" xmlns="http://www.w3.org/2000/svg">
<rect x="0.28418" y="0.401123" width="24.8689" height="24.8689" rx="9.32582" fill="black"/>
<path d="M10.4387 4.54614C10.3327 4.54934 10.2297 4.58187 10.1406 4.64022C10.0515 4.69858 9.97971 4.78054 9.93306 4.87728C9.88641 4.97402 9.86662 5.08186 9.87582 5.18919C9.88502 5.29652 9.92287 5.39926 9.98528 5.48634L12.1864 8.65525C12.1326 8.65128 12.0788 8.64494 12.0249 8.64369C11.1798 8.6242 10.3276 8.93876 9.68351 9.59313L9.40221 9.87904C8.71721 10.5753 8.41359 11.5113 8.47871 12.423L5.36168 10.1858C5.2994 10.138 5.22833 10.1035 5.15268 10.0842C5.07702 10.065 4.99833 10.0613 4.92127 10.0736C4.84421 10.0858 4.77035 10.1136 4.70407 10.1554C4.6378 10.1972 4.58046 10.2521 4.53545 10.3168C4.49044 10.3816 4.45869 10.4548 4.44208 10.5323C4.42546 10.6098 4.42433 10.6898 4.43873 10.7677C4.45314 10.8456 4.48279 10.9198 4.52594 10.9858C4.56908 11.0519 4.62484 11.1084 4.6899 11.1522L9.2301 14.4105C9.14706 14.7947 9.10196 15.193 9.10196 15.6011C9.10196 18.6451 11.542 21.1251 14.5369 21.1251C17.5317 21.1251 19.9717 18.6451 19.9717 15.6011C19.9717 14.5601 19.6809 13.5884 19.1855 12.7559C19.1924 12.7183 19.1957 12.6801 19.1953 12.6418V10.2551C19.1953 9.62971 18.9998 9.01997 18.638 8.51422L15.9782 4.79661C15.9219 4.71566 15.8465 4.65038 15.759 4.60676C15.6714 4.56313 15.5745 4.54255 15.477 4.54691C15.3712 4.55163 15.2686 4.58561 15.1803 4.64521C15.092 4.70481 15.0214 4.78775 14.9761 4.88512C14.9308 4.98248 14.9125 5.09057 14.9231 5.19774C14.9337 5.3049 14.973 5.40708 15.0365 5.49327L17.6963 9.21089C17.9138 9.5148 18.0307 9.8799 18.0307 10.2551V11.3772C17.1004 10.5808 15.9053 10.0959 14.6013 10.0802L10.9361 4.80354C10.881 4.72174 10.8066 4.65531 10.7197 4.61033C10.6328 4.56536 10.5362 4.54329 10.4387 4.54614ZM11.9991 9.81816C12.5351 9.83045 13.0661 10.0583 13.4617 10.4986C13.4671 10.5047 13.4727 10.5106 13.4784 10.5164L14.1585 11.4951C14.4051 11.8501 14.5369 12.2741 14.5369 12.7089C14.5369 13.8777 13.6169 14.8127 12.4669 14.8127C12.0396 14.8127 11.623 14.6777 11.2735 14.4274H11.2727L10.3143 13.74C10.3074 13.7329 10.3004 13.7259 10.2931 13.7192C9.42676 12.915 9.39691 11.5591 10.2264 10.716L10.5069 10.4308C10.9219 10.0092 11.4631 9.80588 11.9991 9.81816ZM15.405 11.3502C17.3516 11.7558 18.8071 13.4993 18.8071 15.6011C18.8071 18.0054 16.9024 19.9414 14.5369 19.9414C12.1713 19.9414 10.2666 18.0054 10.2666 15.6011C10.2666 15.4556 10.2764 15.3127 10.2901 15.1711L10.6017 15.3946C11.1473 15.7856 11.7989 15.9965 12.4669 15.9965C14.2464 15.9965 15.7015 14.5175 15.7015 12.7089C15.7015 12.2374 15.5952 11.7756 15.405 11.3502Z" fill="white"/>
<path d="M32.9248 19.4381L34.734 6.38196H36.6924L39.8819 12.3318L43.0526 6.38196H45.0111L46.8203 19.4381H44.3396L43.09 9.62734L43.7428 9.75791L39.8819 16.6963L36.0023 9.77656L36.6551 9.646L35.4055 19.4381H32.9248Z" fill="black"/>
<path d="M49.3866 23.9518L51.457 18.8226L47.5774 10.1123H50.1514L52.5388 16.1181L54.9635 10.1123H57.5374L51.6994 23.9518H49.3866Z" fill="black"/>
<path d="M60.3926 19.4381V8.69476H56.6995V6.38196H66.473V8.69476H62.78V19.4381H60.3926Z" fill="black"/>
<path d="M68.0565 19.4381V10.1123H70.3693V19.4381H68.0565ZM68.0565 8.69476V6.38196H70.3693V8.69476H68.0565Z" fill="black"/>
<path d="M72.9103 23.9518V10.1123H74.7755L75.2231 11.6604L74.533 11.4179C74.962 10.9765 75.4283 10.6252 75.9319 10.3641C76.4355 10.0967 77.051 9.96307 77.7784 9.96307C78.6923 9.96307 79.4601 10.1838 80.0818 10.6252C80.7036 11.0666 81.173 11.6542 81.49 12.3878C81.8133 13.1214 81.975 13.9234 81.975 14.7939C81.975 15.6643 81.8133 16.4663 81.49 17.1999C81.173 17.9335 80.7036 18.5211 80.0818 18.9625C79.4601 19.4039 78.6923 19.6246 77.7784 19.6246C77.051 19.6246 76.4603 19.5252 76.0065 19.3262C75.5526 19.1273 75.0925 18.8102 74.6262 18.375L75.2231 17.9087V23.9518H72.9103ZM77.424 17.7222C78.1141 17.7222 78.6488 17.4517 79.028 16.9108C79.4135 16.3637 79.6062 15.658 79.6062 14.7939C79.6062 13.9234 79.4135 13.2178 79.028 12.6769C78.6488 12.136 78.1141 11.8655 77.424 11.8655C76.8893 11.8655 76.451 11.9899 76.109 12.2386C75.7671 12.4873 75.5153 12.8323 75.3537 13.2737C75.192 13.7089 75.1112 14.2157 75.1112 14.7939C75.1112 15.3721 75.192 15.8819 75.3537 16.3233C75.5153 16.7585 75.7671 17.1004 76.109 17.3491C76.451 17.5978 76.8893 17.7222 77.424 17.7222Z" fill="black"/>
</svg>
