<svg width="40" height="40" viewBox="0 0 40 40" fill="none" xmlns="http://www.w3.org/2000/svg">
<path d="M25.5435 10C23.4715 10 21.56 10.6776 20 11.8117C18.44 10.6776 16.5285 10 14.4565 10C9.24239 10 5 14.2424 5 19.4565C5 24.6707 9.24239 28.913 14.4565 28.913C16.5285 28.913 18.44 28.2354 20 27.1013C21.56 28.2354 23.4715 28.913 25.5435 28.913C30.7576 28.913 35 24.6707 35 19.4565C35 14.2424 30.7576 10 25.5435 10ZM20 23.4609C19.1835 22.3333 18.6957 20.9526 18.6957 19.4565C18.6957 17.9604 19.1835 16.5798 20 15.4522C20.8165 16.5798 21.3043 17.9604 21.3043 19.4565C21.3043 20.9526 20.8165 22.3333 20 23.4609ZM25.5435 26.3043C24.2091 26.3043 22.9667 25.915 21.9128 25.2517C23.1611 23.6493 23.913 21.6407 23.913 19.4565C23.913 17.2724 23.1611 15.2637 21.9128 13.6613C22.9667 12.9987 24.2091 12.6087 25.5435 12.6087C29.3196 12.6087 32.3913 15.6804 32.3913 19.4565C32.3913 23.2326 29.3196 26.3043 25.5435 26.3043Z" fill="#5A5A5A"/>
</svg>
