<svg width="40" height="40" viewBox="0 0 40 40" fill="none" xmlns="http://www.w3.org/2000/svg">
<path d="M13.2965 13.3335H9.97294C9.08706 13.3335 8.42118 13.9335 8.2 14.8935L6.76 20.4135H6.53882L5.09882 14.8935C4.87765 13.9335 4.21294 13.3335 3.32588 13.3335H0V25.3335H3.32353V18.2535H3.54471L5.42824 25.3335H7.75529L9.63882 18.2535H9.97176V25.3335H13.2953L13.2965 13.3335Z" fill="#5A5A5A"/>
<path d="M26.5929 13.3335H23.6012C22.8259 13.3335 22.0494 13.8135 21.7176 14.6535L19.0588 20.5335H18.8376V13.3335H15.5141V25.3335H18.5059C19.2812 25.3335 20.0576 24.8535 20.2788 24.0135L22.9376 18.1335H23.2706V25.3335H26.5941L26.5929 13.3335Z" fill="#5A5A5A"/>
<path d="M40 17.2935C39.8894 15.1335 38.1165 13.3335 35.9 13.3335H27.7C28.2541 16.0935 30.5812 18.1335 33.4624 18.1335H39.8894C39.8894 17.8935 40 17.6535 40 17.2935Z" fill="#5A5A5A"/>
<path d="M39.4459 19.3335H28.8082V25.3335H32.1318V21.7335H36.0094C37.5624 21.7335 38.8918 20.7735 39.4459 19.3335Z" fill="#5A5A5A"/>
</svg>
