<svg width="13" height="10" viewBox="0 0 13 10" fill="none" xmlns="http://www.w3.org/2000/svg">
<path d="M7.74164 0.500778C7.44914 0.489528 7.17773 0.656872 7.0582 0.924059C6.93727 1.19125 6.9893 1.50343 7.1918 1.71718L9.40383 4.10781L1.10555 4.10781C0.845391 4.10359 0.604922 4.24 0.474141 4.465C0.341953 4.68859 0.341953 4.96703 0.474141 5.19062C0.604922 5.41562 0.845391 5.55203 1.10555 5.54781L9.40383 5.54781L7.1918 7.93843C7.0118 8.12687 6.94852 8.39687 7.02445 8.64578C7.10039 8.89468 7.3043 9.08312 7.55742 9.13937C7.81195 9.19562 8.07633 9.10984 8.2493 8.91718L12.0307 4.82781L8.2493 0.738434C8.11992 0.594997 7.9357 0.507809 7.74164 0.500778Z" fill="black"/>
</svg>
