<svg width="13" height="10" viewBox="0 0 13 10" fill="none" xmlns="http://www.w3.org/2000/svg">
<path d="M5.25836 0.500778C5.55086 0.489528 5.82227 0.656872 5.9418 0.924059C6.06273 1.19125 6.0107 1.50343 5.8082 1.71718L3.59617 4.10781L11.8945 4.10781C12.1546 4.10359 12.3951 4.24 12.5259 4.465C12.658 4.68859 12.658 4.96703 12.5259 5.19062C12.3951 5.41562 12.1546 5.55203 11.8945 5.54781L3.59617 5.54781L5.8082 7.93843C5.9882 8.12687 6.05148 8.39687 5.97555 8.64578C5.89961 8.89468 5.6957 9.08312 5.44258 9.13937C5.18805 9.19562 4.92367 9.10984 4.7507 8.91718L0.969297 4.82781L4.7507 0.738434C4.88008 0.594997 5.0643 0.507809 5.25836 0.500778Z" fill="black"/>
</svg>
