<svg width="22" height="21" viewBox="0 0 22 21" fill="none" xmlns="http://www.w3.org/2000/svg">
<g clip-path="url(#clip0_396_659)">
<path d="M3.84603 1.13257C2.55213 1.13257 1.48633 2.19837 1.48633 3.49227V7.16292C1.48633 8.45682 2.55213 9.52262 3.84603 9.52262H7.51668C8.81058 9.52262 9.87638 8.45682 9.87638 7.16292V3.49227C9.87638 2.19837 8.81058 1.13257 7.51668 1.13257H3.84603ZM14.3336 1.13257C13.0397 1.13257 11.9739 2.19837 11.9739 3.49227V7.16292C11.9739 8.45682 13.0397 9.52262 14.3336 9.52262H18.0042C19.2981 9.52262 20.3639 8.45682 20.3639 7.16292V3.49227C20.3639 2.19837 19.2981 1.13257 18.0042 1.13257H14.3336ZM3.84603 2.7057H7.51668C7.96056 2.7057 8.30325 3.04838 8.30325 3.49227V7.16292C8.30325 7.6068 7.96056 7.94949 7.51668 7.94949H3.84603C3.40214 7.94949 3.05946 7.6068 3.05946 7.16292V3.49227C3.05946 3.04838 3.40214 2.7057 3.84603 2.7057ZM14.3336 2.7057H18.0042C18.4481 2.7057 18.7908 3.04838 18.7908 3.49227V7.16292C18.7908 7.6068 18.4481 7.94949 18.0042 7.94949H14.3336C13.8897 7.94949 13.547 7.6068 13.547 7.16292V3.49227C13.547 3.04838 13.8897 2.7057 14.3336 2.7057ZM4.6326 4.27884V6.37635H6.73011V4.27884H4.6326ZM15.1202 4.27884V6.37635H17.2177V4.27884H15.1202ZM3.84603 11.6201C2.55213 11.6201 1.48633 12.6859 1.48633 13.9798V17.6505C1.48633 18.9444 2.55213 20.0102 3.84603 20.0102H7.51668C8.81058 20.0102 9.87638 18.9444 9.87638 17.6505V13.9798C9.87638 12.6859 8.81058 11.6201 7.51668 11.6201H3.84603ZM11.9739 11.6201V14.5042H14.858V11.6201H11.9739ZM14.858 14.5042V17.1261H17.4799V14.5042H14.858ZM17.4799 14.5042H20.3639V11.6201H17.4799V14.5042ZM17.4799 17.1261V20.0102H20.3639V17.1261H17.4799ZM14.858 17.1261H11.9739V20.0102H14.858V17.1261ZM3.84603 13.1933H7.51668C7.96056 13.1933 8.30325 13.5359 8.30325 13.9798V17.6505C8.30325 18.0944 7.96056 18.4371 7.51668 18.4371H3.84603C3.40214 18.4371 3.05946 18.0944 3.05946 17.6505V13.9798C3.05946 13.5359 3.40214 13.1933 3.84603 13.1933ZM4.6326 14.7664V16.8639H6.73011V14.7664H4.6326Z" fill="black"/>
</g>
<defs>
<clipPath id="clip0_396_659">
<rect width="20.5938" height="20.5938" fill="white" transform="translate(0.62793 0.274414)"/>
</clipPath>
</defs>
</svg>
