<svg width="40" height="40" viewBox="0 0 40 40" fill="none" xmlns="http://www.w3.org/2000/svg">
<path d="M32.6183 12.8967L22.8367 5.19C21.1667 3.87417 18.8333 3.87417 17.1633 5.19L7.38167 12.8967C5.86833 14.0892 5 15.8792 5 17.8058V32.0467C5 34.1142 6.6825 35.7967 8.75 35.7967H15V27.3217C13.08 26.775 11.6667 25.0075 11.6667 22.9167V15.8333C11.6667 15.3725 12.0392 15 12.5 15C12.9608 15 13.3333 15.3725 13.3333 15.8333V21.25C13.3333 21.4792 13.5208 21.6667 13.75 21.6667H15C15.2292 21.6667 15.4167 21.4792 15.4167 21.25V15.8333C15.4167 15.3725 15.7892 15 16.25 15C16.7108 15 17.0833 15.3725 17.0833 15.8333V21.25C17.0833 21.4792 17.2708 21.6667 17.5 21.6667H18.75C18.9792 21.6667 19.1667 21.4792 19.1667 21.25V15.8333C19.1667 15.3725 19.5392 15 20 15C20.4608 15 20.8333 15.3725 20.8333 15.8333V22.9167C20.8333 25.0075 19.42 26.775 17.5 27.3217V35.7967H23.3333V15.8333C23.3333 15.5133 23.5167 15.2208 23.8058 15.0825C24.0933 14.9442 24.4367 14.9825 24.6875 15.1833C24.8358 15.3017 28.3333 18.195 28.3333 26.5V27.2817C28.3333 27.86 28.1075 28.4042 27.6983 28.8133L25.8333 30.6783V35.7967H31.25C33.3175 35.7967 35 34.1142 35 32.0467V17.8058C35 15.8792 34.1317 14.0892 32.6183 12.8967Z" fill="#FF6D1B"/>
</svg>
