<svg width="40" height="40" viewBox="0 0 40 40" fill="none" xmlns="http://www.w3.org/2000/svg">
<path d="M24.5738 8.43255C24.4211 8.36815 24.2474 8.38137 24.1035 8.46363L15.4345 13.4208L11.8686 11.3801C11.6564 11.2586 11.3856 11.2968 11.224 11.4803C11.0084 11.7252 11.086 12.0993 11.369 12.2616L15.4345 14.5928L24.6069 9.34253C24.9781 9.13003 24.9679 8.59878 24.5738 8.43255ZM27.2965 10.0615C27.1286 9.92589 26.8929 9.90921 26.7056 10.0164L15.4345 16.4643L10.3684 13.5634C10.1168 13.4194 9.7948 13.5032 9.66012 13.76C9.53181 14.0046 9.62774 14.3032 9.86732 14.4408L15.4345 17.6363L27.2148 10.8966C27.5281 10.7174 27.5772 10.2883 27.2965 10.0615ZM29.2806 12.0978C29.1249 11.8926 28.84 11.8409 28.6165 11.9687L15.4345 19.5078L9.42354 16.0628C9.12808 15.8934 8.75236 16.0374 8.67184 16.3683C8.61712 16.5932 8.72225 16.8265 8.92296 16.9417L15.4345 20.6798L29.1173 12.8501C29.3864 12.6961 29.468 12.3448 29.2806 12.0978ZM30.9297 15.0753C30.7265 14.5326 30.0811 14.3349 29.5781 14.6226L15.4345 22.7137L8.79738 18.9084C8.59592 18.7929 8.33301 18.9308 8.33301 19.163C8.33301 25.6066 13.5561 30.8297 19.9997 30.8297C26.4432 30.8297 31.6663 25.6066 31.6663 19.163C31.6663 17.7247 31.4059 16.3474 30.9297 15.0753Z" fill="#5A5A5A"/>
</svg>
