<svg width="35" height="35" viewBox="0 0 35 35" fill="none" xmlns="http://www.w3.org/2000/svg">
<g opacity="0.3" clip-path="url(#clip0_140_1911)">
<path d="M17.4475 0.332031C12.7729 0.332031 8.95614 4.189 8.95614 8.91277C8.95614 13.6365 12.7729 17.4935 17.4475 17.4935C22.1221 17.4935 25.9388 13.6365 25.9388 8.91277C25.9388 4.189 22.1221 0.332031 17.4475 0.332031ZM7.68244 20.9258C5.58719 20.9258 3.86133 22.6698 3.86133 24.7871V25.8161C3.86133 28.3396 5.44472 30.6031 7.85989 32.1595C10.2751 33.7159 13.5795 34.655 17.4475 34.655C21.3154 34.655 24.6199 33.7159 27.0351 32.1595C29.4503 30.6031 31.0337 28.3396 31.0337 25.8161V24.7871C31.0337 22.6698 29.3078 20.9258 27.2125 20.9258H7.68244Z" fill="#252525"/>
</g>
<defs>
<clipPath id="clip0_140_1911">
<rect width="34.3229" height="34.3229" fill="white" transform="translate(0.286133 0.332031)"/>
</clipPath>
</defs>
</svg>
