<svg width="40" height="40" viewBox="0 0 40 40" fill="none" xmlns="http://www.w3.org/2000/svg">
<path d="M0 13.6105H5.07647C6.37427 13.6105 6.87251 14.8271 6.87251 14.8271L7.97599 20.4369C6.47016 15.5861 0 13.6105 0 13.6105Z" fill="#5A5A5A"/>
<path d="M11.3742 13.5851H14.8854L9.89208 25.9473H6.27691L3.64287 15.9352C3.64287 15.9352 6.41692 17.3413 8.12605 21.1733C8.19815 21.639 8.37075 22.3876 8.37075 22.3876L11.3742 13.5851Z" fill="#5A5A5A"/>
<path d="M16.1828 13.5828H19.5025L17.5172 25.9473H14.2367L16.1828 13.5828Z" fill="#5A5A5A"/>
<path d="M26.0911 13.3335C27.6099 13.3335 29.1637 13.9406 29.1637 13.9406L28.6328 16.6716C28.6328 16.6716 27.4191 15.8729 26.3589 15.8729C24.7266 15.8729 24.1565 16.4078 24.1565 17.1241C24.1565 18.5259 28.7078 18.7529 28.709 21.8982C28.709 24.515 25.4478 26.3352 23.0969 26.3352C20.746 26.3352 19.5302 25.6172 19.5302 25.6172L20.0981 22.997C20.0981 22.997 21.3487 23.7173 23.247 23.7173C25.1405 23.7173 25.4077 22.9219 25.4077 22.5815C25.4077 20.5733 20.8576 21.1055 20.8576 17.2003C20.8576 15.0397 22.6397 13.3335 26.0911 13.3335Z" fill="#5A5A5A"/>
<path fill-rule="evenodd" clip-rule="evenodd" d="M34.007 13.5828H37.4583L40 25.9473H37.0128L36.6595 24.1813H32.5527L31.8786 25.9473H28.6212L34.007 13.5828ZM33.4622 21.8197L35.249 17.1472L36.184 21.8197H33.4622Z" fill="#5A5A5A"/>
</svg>
