<svg width="40" height="40" viewBox="0 0 40 40" fill="none" xmlns="http://www.w3.org/2000/svg">
<path d="M20.0002 1.66663C19.7733 1.6669 19.5488 1.71351 19.3406 1.80361C19.1323 1.8937 18.9446 2.02537 18.789 2.19056C18.6334 2.35575 18.5132 2.55097 18.4357 2.76426C18.3583 2.97755 18.3251 3.20441 18.3384 3.43095C10.8474 4.26117 5.00023 10.6246 5.00023 18.3333V19.1666H3.75023C3.58459 19.1643 3.42013 19.1949 3.26642 19.2567C3.11271 19.3184 2.97281 19.4101 2.85485 19.5264C2.73689 19.6427 2.64322 19.7813 2.57928 19.9341C2.51535 20.087 2.48242 20.251 2.48242 20.4166C2.48242 20.5823 2.51535 20.7463 2.57928 20.8991C2.64322 21.0519 2.73689 21.1905 2.85485 21.3068C2.97281 21.4231 3.11271 21.5148 3.26642 21.5766C3.42013 21.6384 3.58459 21.669 3.75023 21.6666H7.69228C7.55537 22.0857 7.49075 22.5207 7.50023 22.9443C7.51913 23.7763 7.83614 24.3811 8.03896 24.8339C8.57648 26.0331 8.65494 26.9426 8.81696 27.9329C8.94035 28.6871 9.18345 29.5753 9.7805 30.3369L8.65908 33.5107C8.42908 34.1615 8.77159 34.8766 9.42243 35.1058C10.0716 35.3366 17.7071 38.0325 18.358 38.2617C18.4955 38.31 18.6363 38.3333 18.7746 38.3333C19.2896 38.3333 19.773 38.0125 19.9547 37.5L21.3072 33.6702C21.4952 33.2706 22.313 32.2538 23.2717 31.3362C24.242 30.4075 25.3613 29.4919 26.1428 28.9339C28.9967 26.8954 31.6911 25.372 31.7011 25.3662L31.7092 25.3629L31.7157 25.358C32.9877 24.5946 33.5783 23.076 33.2147 21.6666H36.2502C36.4159 21.669 36.5803 21.6384 36.734 21.5766C36.8877 21.5148 37.0276 21.4231 37.1456 21.3068C37.2636 21.1905 37.3572 21.0519 37.4212 20.8991C37.4851 20.7463 37.518 20.5823 37.518 20.4166C37.518 20.251 37.4851 20.087 37.4212 19.9341C37.3572 19.7813 37.2636 19.6427 37.1456 19.5264C37.0276 19.4101 36.8877 19.3184 36.734 19.2567C36.5803 19.1949 36.4159 19.1643 36.2502 19.1666H35.0002V18.3333C35.0002 10.6246 29.153 4.26117 21.662 3.43095C21.6753 3.20441 21.6422 2.97755 21.5647 2.76426C21.4872 2.55097 21.367 2.35575 21.2114 2.19056C21.0559 2.02537 20.8682 1.8937 20.6599 1.80361C20.4516 1.71351 20.2271 1.6669 20.0002 1.66663ZM11.12 21.6666H11.2925C11.5925 21.6947 11.8756 21.836 12.0917 22.0654C12.1295 22.128 12.1733 22.2008 12.2333 22.2998C12.3777 22.5379 12.5764 22.8631 12.8111 23.2242C13.2805 23.9465 13.8662 24.8002 14.5331 25.4671C15.6776 26.6115 17.1302 26.6666 17.9169 26.6666C19.1964 26.6666 20.3222 26.0764 21.7532 25.3938C23.1841 24.7113 24.7346 23.8696 26.0093 23.1836C26.3537 22.9983 27.018 22.6202 27.8062 22.2753C28.5945 21.9305 29.498 21.6666 29.9823 21.6666C30.3325 21.6666 30.65 21.8694 30.7782 22.2005C30.9262 22.5859 30.7831 23.0015 30.4283 23.2145C30.406 23.2273 27.6638 24.776 24.691 26.8994C23.7825 27.548 22.6116 28.507 21.5432 29.5296C20.8049 30.2362 20.1315 30.9297 19.6129 31.6601L11.8606 28.9209C11.4682 28.5743 11.4082 28.2961 11.2828 27.5293C11.1435 26.6783 11.0192 25.3735 10.3192 23.8118H10.3209C10.1153 23.353 10.003 23.0103 10.0002 22.889C9.99127 22.4889 10.1025 22.2054 10.3599 21.9824C10.5972 21.7769 10.8611 21.6807 11.12 21.6666ZM14.7854 21.6666H23.5451C22.588 22.1778 21.601 22.6974 20.6773 23.138C19.3349 23.7783 17.989 24.1666 17.9169 24.1666C17.1302 24.1666 16.8229 24.2217 16.3007 23.6995C15.8992 23.2981 15.3356 22.5207 14.9075 21.8619C14.8587 21.787 14.8309 21.7381 14.7854 21.6666ZM17.0836 33.3333C17.7736 33.3333 18.3336 33.8933 18.3336 34.5833C18.3336 35.2733 17.7736 35.8333 17.0836 35.8333C16.3936 35.8333 15.8336 35.2733 15.8336 34.5833C15.8336 33.8933 16.3936 33.3333 17.0836 33.3333Z" fill="#FF6D1B"/>
</svg>
